<?xml version="1.0" encoding="utf-8"?>
<svg version="1.1" id="Layer_1" xmlns="http://www.w3.org/2000/svg" x="0px" y="0px" width="500px" viewBox="0 0 500 500" enable-background="new 0 0 500 500" xmlns:bx="https://boxy-svg.com" height="500px"><defs><bx:export><bx:file format="svg"/></bx:export></defs><path fill="#F6EBDB" opacity="1.000000" stroke="none" d=" M185.392273,179.337799 C183.645096,171.811722 184.138596,164.509399 183.879578,157.244858 C183.794098,154.846939 184.692657,154.337036 186.989822,154.102692 C189.822296,153.813751 193.231110,156.028763 195.700317,152.186279 C198.212646,154.016418 197.876633,156.949951 197.989716,159.684845 C198.153687,163.650391 197.963089,167.627594 198.062805,171.597427 C198.192261,176.752060 198.862747,177.445221 204.122299,177.961182 C205.613510,178.107483 207.086487,178.232712 208.858856,179.091309 C212.572250,182.489456 212.089615,186.527771 211.684280,190.956818 C211.540451,191.674744 211.498734,191.961441 211.387512,192.670288 C209.888550,203.795563 210.465973,214.553955 210.589951,225.616455 C210.899612,226.109009 211.050964,226.280640 211.503845,226.601135 C212.243393,226.866821 212.686783,226.957260 213.494080,227.027649 C214.099152,227.030792 214.345551,227.028641 214.970062,227.028275 C217.419662,227.246719 219.612183,227.114685 221.177612,229.392563 C220.112854,231.882751 217.973709,231.768585 216.072128,231.853500 C213.519958,231.967468 212.566483,233.099686 212.818939,235.587326 C213.047668,237.841354 213.309875,239.931946 216.283920,239.983444 C218.252960,240.017532 220.215134,240.192917 222.569275,240.305054 C226.160828,239.866180 229.354752,239.555847 232.798401,241.162384 C234.661285,242.842819 234.510651,244.744705 234.473648,246.543091 C234.398163,250.209351 236.323288,251.527603 239.734406,251.510971 C244.882263,251.485901 250.031036,251.467804 255.573975,251.553268 C259.306671,252.514053 262.696167,252.787125 266.450989,252.242523 C266.937897,252.012070 267.113861,251.890778 267.466370,251.505829 C268.322693,249.787445 268.188721,248.207092 268.409912,246.301453 C268.588043,244.582596 268.582703,243.205536 269.686432,241.689423 C273.465332,238.941635 277.358124,238.728363 281.841919,239.257538 C294.631226,238.104645 296.041382,239.354385 296.058197,251.456116 C296.074158,262.952881 296.037048,274.449646 296.081909,285.946381 C296.103180,291.397034 295.176544,292.458557 290.025665,293.012939 C284.437927,293.614349 284.037201,294.092651 284.083374,299.818268 C284.114319,303.652313 285.274353,307.372375 285.047028,311.248047 C284.725647,316.727234 283.485107,318.685822 278.022522,318.882141 C273.734161,319.036255 273.237183,322.332947 271.100220,324.933350 C267.483337,324.104004 268.128967,321.230042 268.064667,318.921936 C267.869995,311.933441 267.932739,304.937042 268.019012,297.945923 C268.059082,294.697144 267.000671,292.964478 263.486816,292.917419 C259.273773,292.861023 257.253937,290.446869 256.931732,286.288757 C256.713776,283.476074 255.860565,281.133331 252.241089,281.016632 C248.635696,280.900391 246.321259,281.729370 246.857986,285.963623 C246.982574,286.946655 246.823593,287.958252 246.522766,289.330139 C246.303238,289.958588 246.189255,290.199646 245.845520,290.758545 C245.417542,291.235535 245.219330,291.394653 244.678345,291.698914 C241.227646,291.998230 238.098846,290.749481 234.785538,292.174255 C234.228058,292.832672 234.024689,293.345795 234.041321,294.224274 C234.085571,294.935547 234.083206,295.351074 234.021790,296.098297 C233.580368,297.519897 233.469879,298.674408 233.086212,300.126404 C232.782471,300.631744 232.628174,300.812164 232.203094,301.222656 C230.188339,302.054962 228.810486,301.251709 228.248947,299.805176 C226.802536,296.079285 224.335876,293.060669 223.462448,288.727753 C222.155975,282.246460 219.671188,275.309326 211.600449,273.063660 C207.639618,271.961548 203.662918,270.163269 204.045853,264.736420 C201.757034,266.356415 199.348389,268.001892 196.139771,265.607452 C194.847366,263.277344 195.022629,261.087891 194.967819,258.929565 C194.651077,246.455353 194.810547,233.972565 194.546219,221.495956 C194.386627,213.963715 193.322632,206.275558 194.805954,198.654953 C195.636932,194.385788 194.480820,190.047226 194.022339,185.746277 C193.752213,183.212372 192.839340,181.728104 190.075806,181.659821 C188.399872,181.618423 186.770279,181.156097 185.392273,179.337799 z"/><path fill="#D4D4CE" opacity="1.000000" stroke="none" d=" M269.733429,325.305786 C270.239258,318.460022 273.301880,315.718262 279.885742,316.908051 C282.694031,317.415588 283.090179,315.206055 282.971161,313.013428 C282.665771,307.388611 282.435089,301.756744 281.970306,296.144623 C281.654633,292.333160 282.882538,290.416718 286.966766,290.985352 C288.109406,291.144409 289.302490,290.915680 290.455017,291.034149 C293.733276,291.371155 294.344391,290.289246 294.230042,286.823608 C293.807739,274.027344 294.020599,261.210144 293.992798,248.400833 C293.976807,241.033310 293.975159,241.035645 286.794037,241.007309 C285.463348,241.002060 284.132782,240.969345 282.331482,240.929474 C279.173737,237.366928 279.788116,233.238800 279.938110,228.812836 C280.247070,228.167160 280.405853,227.928268 280.888306,227.419189 C281.459625,227.032455 281.707306,226.915909 282.347107,226.713425 C285.437683,226.263046 288.267059,227.034592 291.156128,225.509247 C293.220764,223.187088 292.247253,220.641693 292.506165,217.894516 C292.343231,214.080109 292.907379,210.618790 291.926147,206.861450 C291.317932,204.207565 291.620972,201.878464 291.497253,199.568176 C291.375824,197.300323 290.921448,195.229416 287.783142,194.810822 C286.899017,194.849380 286.384735,194.851852 285.459900,194.798401 C284.773926,194.715714 284.498352,194.664291 283.805481,194.515167 C282.835815,194.215729 282.322876,193.940125 281.540741,193.264008 C281.092682,192.666702 280.951355,192.399643 280.677979,191.697388 C279.682190,187.336823 279.518677,183.434052 281.159973,179.209381 C283.086945,177.181824 285.259003,176.944458 287.423950,177.010742 C290.938354,177.118362 292.093018,175.345184 291.989563,172.083725 C291.873779,168.433868 291.995331,164.776978 291.940735,161.123032 C291.906677,158.844467 291.108215,157.461914 288.552277,157.107162 C280.460052,155.983994 278.923859,153.680496 280.284180,145.227798 C280.390015,144.570114 280.641632,143.950089 281.096008,142.936462 C283.318787,139.852509 286.509918,140.948898 289.563080,140.023193 C295.022095,140.405807 300.186462,138.822968 305.335815,141.563583 C306.500305,145.917740 305.830231,150.144272 307.768494,154.228119 C309.501282,156.503067 311.598969,155.089432 313.663422,155.274719 C314.437531,155.049042 314.895142,155.004410 315.692749,155.023224 C316.736450,155.690521 317.625610,155.409714 318.658997,155.787231 C318.931641,156.752548 318.964050,157.517593 318.930328,158.660797 C318.107513,161.102936 318.642120,163.233566 318.690460,165.651443 C318.889130,168.694916 318.936798,171.418274 318.914886,174.590866 C318.120911,180.104645 318.626740,185.192657 318.774017,190.632965 C319.204590,191.252304 319.415710,191.508301 319.820557,191.922333 C320.176361,192.359970 320.338409,192.639542 320.617828,193.388992 C321.460236,199.668839 321.030212,205.503387 321.049408,211.324463 C321.113068,230.646500 321.090942,249.968918 321.055084,269.291107 C321.050476,271.773163 321.353058,274.298126 320.277344,277.161804 C319.647705,278.486115 318.907440,279.064392 317.708405,279.798767 C316.708740,280.274811 316.087646,280.509857 315.439514,280.635651 C307.697296,282.138428 307.702118,282.136322 307.088196,290.282654 C306.726013,295.088898 307.486359,299.820129 307.903595,304.583160 C308.175171,307.683258 308.341187,310.853210 307.295044,314.325165 C306.923401,315.214172 306.621918,315.661835 305.963196,316.317566 C303.962280,317.727600 301.968933,317.812927 300.024414,317.910675 C297.378326,318.043732 296.242645,319.493866 296.077789,321.956573 C295.886169,324.818573 297.864441,325.011627 299.947540,325.107758 C301.413391,325.175385 302.893890,325.174255 304.643005,325.839813 C305.421173,326.263000 305.756866,326.632019 305.982788,327.475525 C304.599884,327.912292 303.229492,327.963623 301.452515,328.080658 C299.574310,330.122559 297.277466,330.143066 295.205719,330.363770 C287.019775,331.235840 278.816223,331.947479 270.255951,329.736389 C268.942017,328.282776 268.848206,327.021790 269.733429,325.305786 z"/><path fill="#BD351E" opacity="1.000000" stroke="none" d=" M330.535339,253.762878 C331.625488,253.143478 332.122833,253.145859 332.620148,253.151947 C335.931519,253.192474 339.775757,252.189835 342.419403,253.539154 C345.722382,255.225006 343.342316,259.509796 343.781494,262.620758 C344.111603,264.958832 345.101532,265.824738 347.261078,265.808411 C348.753754,265.797119 350.256500,265.917664 351.737305,265.784790 C354.991791,265.492676 356.214355,266.870300 355.939087,270.113098 C355.744019,272.410889 356.019928,274.748688 355.998444,277.523071 C346.915558,278.903259 346.796539,278.895569 346.190521,288.269623 C345.751190,295.065613 346.126434,301.888184 346.026764,308.697083 C345.976349,312.140869 347.244293,314.013580 350.918121,314.015228 C354.658813,314.016937 357.560120,315.497711 357.811188,319.634796 C358.455597,330.252441 357.931519,340.827576 355.853943,351.680725 C352.858734,353.790985 349.846436,352.873566 346.939545,352.804199 C345.511475,352.770111 344.522583,351.990875 344.489624,350.293274 C344.441986,347.839600 343.841888,345.432129 344.412109,342.921692 C344.838776,341.043182 344.559021,339.168579 341.445984,339.266876 C340.560211,339.405243 340.095734,339.461121 339.294250,339.407196 C338.293762,339.232574 339.144043,339.243408 338.479492,339.190216 C331.266937,338.612823 331.265411,338.612854 330.979736,331.550323 C330.953217,330.894043 330.875031,330.251434 330.458984,329.275208 C330.272644,328.917542 330.109619,328.956085 330.054565,328.892944 C327.711243,328.156586 325.368042,328.569855 323.052307,328.513184 C320.203400,328.443512 318.641937,327.035706 318.608368,324.249603 C318.441956,310.433411 318.401215,296.615997 318.629333,282.800110 C318.671448,280.250946 320.144592,278.860535 322.689636,278.614044 C324.172089,278.470459 325.699707,278.575714 327.394348,277.552795 C329.444122,275.010498 329.471588,272.387756 329.535645,269.710358 C329.657898,264.602386 329.028809,259.472290 330.535339,253.762878 z"/><path fill="#DF4317" opacity="1.000000" stroke="none" d=" M257.450256,68.933014 C258.022522,69.095421 258.216614,69.122513 258.692932,69.231598 C259.422882,69.533264 259.866577,69.779877 260.366760,69.843742 C267.733185,70.784416 267.752319,70.780930 268.486115,78.463165 C268.602295,79.679451 269.009430,80.709648 269.958801,82.031952 C271.471466,87.236061 271.697235,92.229027 271.911835,97.143143 C272.316589,106.410995 272.121674,115.704948 271.999298,124.986404 C271.918854,131.085587 270.282074,133.428253 264.333649,133.826416 C259.159363,134.172760 260.461487,138.366562 258.638641,141.253143 C257.035339,142.713959 255.541779,143.422211 253.819244,143.417191 C242.886047,143.385361 231.948334,143.872879 220.595978,142.961914 C215.913284,136.294327 218.183823,130.655838 225.618332,130.105118 C229.725204,129.800903 231.143936,128.144287 230.993546,124.235794 C230.834549,120.102951 230.887238,115.955284 231.018860,111.816010 C231.128036,108.382225 232.361710,104.915634 235.939316,104.737038 C242.776001,104.395699 243.397797,100.244804 243.242889,94.637085 C242.960373,90.335625 242.625488,86.471718 243.624741,82.218727 C243.923065,81.561600 244.062012,81.312378 244.484070,80.752914 C245.724640,79.714188 246.844147,79.438042 248.004929,79.251122 C254.305679,78.236534 254.304626,78.232941 255.320374,71.787491 C255.424698,71.125496 255.653885,70.502899 256.174744,69.574821 C256.628937,69.098610 256.850494,68.948158 257.450256,68.933014 z"/><path fill="#BC371F" opacity="1.000000" stroke="none" d=" M157.860184,265.796814 C158.520950,265.311310 158.946152,265.203400 159.700546,265.057922 C160.747955,264.361420 161.457870,263.514282 162.452606,263.490570 C166.314468,263.398376 169.207855,261.920349 170.777756,258.223083 C170.966888,257.777679 171.627853,257.865906 172.435547,258.161438 C175.298462,264.695862 173.673340,271.184540 173.824707,278.001282 C174.424698,284.205750 173.889389,290.011169 174.570724,295.816589 C175.097733,300.307098 176.573044,302.557098 181.249847,302.124207 C182.059540,302.049316 182.851578,302.516144 184.061798,302.891602 C188.102081,306.133514 186.860794,310.240601 186.710358,314.512573 C186.196075,316.831787 185.991562,318.737732 186.441528,321.081299 C186.346725,323.442963 186.850967,325.478821 185.308395,327.566132 C182.124847,329.790985 178.872223,328.810913 175.797256,328.849304 C172.942307,328.884949 171.658798,329.561127 171.581146,332.743225 C171.387207,340.692139 171.227417,340.915588 163.521820,340.817444 C159.620300,340.767761 158.826355,342.226288 158.912949,345.785156 C159.095978,353.308197 158.911133,353.331512 151.303879,353.833832 C149.593674,353.946747 148.082108,353.847229 147.815582,356.294556 C147.489807,359.286011 149.386078,363.146393 146.187668,365.069885 C143.526611,366.670227 139.997925,365.471558 136.402771,365.705261 C132.880737,362.278259 133.772644,358.443909 135.168152,354.189575 C136.968033,352.274933 138.940475,351.986908 140.952682,351.940765 C144.534897,351.858551 145.897476,349.907654 145.919449,346.516449 C145.968948,338.878632 145.872635,331.240540 145.970367,323.603546 C146.052200,317.209290 146.861923,316.010651 153.041580,315.012756 C156.766357,314.411285 156.906540,312.064392 156.941666,309.269470 C157.066803,299.310303 156.704285,289.348053 157.190521,278.952026 C157.159119,274.393585 156.365372,270.252716 157.860184,265.796814 z"/><path fill="#DD4F27" opacity="1.000000" stroke="none" d=" M136.311920,353.688232 C135.989792,357.649109 135.964951,361.258240 135.942444,365.305969 C135.939529,368.235291 135.706329,370.751617 135.983322,373.210510 C136.382980,376.758545 135.239426,378.112488 131.493240,378.419373 C122.109955,379.187958 122.283073,379.348572 122.042244,369.910400 C121.436417,346.168335 122.579102,322.408600 121.173164,298.673401 C120.768959,291.849426 121.017242,291.839722 127.663635,291.755096 C128.991531,291.738190 130.318710,291.630066 131.646240,291.629333 C134.106049,291.627991 134.981506,290.569397 135.085403,287.988831 C135.437195,279.251984 135.557663,279.258301 144.455276,279.046783 C145.285172,279.027100 146.114273,278.974121 147.782196,279.164124 C151.821182,286.840851 150.007111,291.119354 142.418945,292.502045 C138.593307,293.199127 138.046402,295.229279 138.048431,298.360565 C138.058762,314.302185 138.084412,330.243866 138.035675,346.185425 C138.028168,348.643433 138.395020,351.215881 136.311920,353.688232 z"/><path fill="#BD351E" opacity="1.000000" stroke="none" d=" M258.255646,141.333633 C258.001221,140.839951 258.003784,140.673767 258.000793,140.507660 C257.953339,137.889099 256.916718,134.604904 258.114929,132.825531 C259.517975,130.741974 263.067444,132.175140 265.672394,131.988403 C269.496979,131.714249 270.067566,129.407516 270.046875,126.173325 C269.954742,111.745155 270.234802,97.310860 269.019318,82.448990 C269.894562,81.296967 270.926422,81.524940 271.907318,81.506897 C281.626190,81.328064 281.626251,81.331055 281.220520,91.615997 C281.026367,93.211098 281.073914,94.368553 281.067169,95.525696 C281.011261,105.148849 280.994446,105.241226 290.101776,106.596581 C292.715088,106.985497 293.929626,107.891243 293.749115,110.656609 C293.394012,116.095802 293.343201,121.556305 292.925201,126.989418 C292.672668,130.272156 293.865997,131.216782 297.113800,131.218979 C305.971283,131.224976 305.971191,131.373962 305.700745,141.468201 C300.742157,141.966858 295.825775,142.019409 290.446228,142.004181 C285.250763,140.822510 280.810333,141.729019 276.164368,144.068420 C272.622223,145.281830 269.431702,145.185562 265.811707,144.421631 C263.400909,142.639618 260.729095,142.741714 258.255646,141.333633 z"/><path fill="#DF4317" opacity="1.000000" stroke="none" d=" M354.871582,352.453278 C354.690491,341.721191 356.475494,331.522583 356.081604,321.224182 C355.942871,317.597107 355.359985,315.782776 351.136353,315.906769 C344.036102,316.115265 344.017181,315.851898 344.013550,308.753326 C344.008698,299.183136 344.035339,289.612885 344.020508,280.042725 C344.016937,277.729584 344.802246,275.986145 347.364563,276.100311 C350.058563,276.220398 353.060089,274.910919 355.627594,277.729584 C356.430054,278.979431 357.377350,279.128296 358.717041,279.263367 C361.984924,279.989685 365.839203,278.111145 367.676056,280.224152 C369.365601,282.167694 367.792511,285.936188 368.339447,288.764526 C372.010498,307.748688 369.323273,326.898743 369.969696,345.956635 C370.288513,355.355255 364.417145,358.655884 355.613434,354.028442 C355.114960,353.413300 354.924133,353.160553 354.871582,352.453278 z"/><path fill="#BC371F" opacity="1.000000" stroke="none" d=" M354.864380,353.145020 C358.319397,354.847900 361.867462,353.949921 365.283203,353.835236 C367.636200,353.756256 368.029816,351.790527 368.008728,349.829834 C367.766388,327.324615 368.576355,304.811188 367.444427,282.309235 C367.346710,280.366760 366.653168,280.079803 365.165833,280.014465 C363.352264,279.934814 361.540344,279.817719 359.401093,279.517944 C359.568115,279.247650 360.059906,279.131165 360.555603,279.111450 C368.739807,278.785400 368.910645,278.791290 368.759552,286.939270 C368.691284,290.620941 369.551483,291.817841 373.511963,291.432220 C381.189362,290.684784 381.177643,290.961273 381.083252,298.691467 C380.784149,323.185425 380.885468,347.674469 381.846649,372.157532 C381.921143,374.054169 383.245819,377.092560 380.352509,377.770599 C376.707886,378.624725 372.636902,379.925354 369.143158,377.887512 C366.936676,376.600525 368.059082,373.545654 368.145874,371.339386 C368.307648,367.227081 368.352417,364.623199 362.530365,365.471008 C355.114838,366.550842 355.023682,365.924866 355.014587,354.445618 C354.885681,353.792938 354.767822,353.600189 354.864380,353.145020 z"/><path fill="#FDF7EA" opacity="1.000000" stroke="none" d=" M185.021790,179.463684 C186.395859,179.305984 187.853287,180.144806 188.953278,179.809860 C194.937775,177.987564 195.752838,180.822144 196.188339,186.073990 C197.161499,197.809280 195.617340,209.539185 196.315979,221.149261 C197.198303,235.811874 196.510849,250.431961 197.007904,265.527649 C200.168152,269.751007 198.521194,273.574921 196.910873,277.773956 C194.687332,279.962097 192.269882,279.988556 189.383408,279.838501 C187.469528,279.548676 185.984955,280.249664 184.108673,279.511230 C183.494522,279.073456 183.286331,278.847870 182.855148,278.217957 C181.442368,274.056641 181.852615,270.201691 182.154984,266.408234 C183.905670,244.444489 182.434128,222.449448 182.964447,200.478317 C183.061264,196.467117 179.547272,195.475220 177.986511,192.452332 C179.151581,191.868683 180.312042,191.578079 181.446335,191.658142 C184.274353,191.857742 185.252045,190.688354 184.995651,187.879761 C184.755249,185.246231 184.941589,182.573746 185.021790,179.463684 z"/><path fill="#E25026" opacity="1.000000" stroke="none" d=" M257.412048,365.651672 C258.576477,369.044373 257.773743,372.404663 257.886169,375.676788 C257.933868,377.064636 257.204010,377.565308 255.828049,377.896057 C246.212967,380.207214 245.052185,379.324280 245.054947,369.352448 C245.055267,368.189606 245.052002,367.026733 245.020569,365.397461 C244.786850,364.670135 244.582962,364.409271 244.143402,363.710999 C242.653381,361.320374 242.942871,359.111603 242.938614,356.979523 C242.899872,337.576324 242.909546,318.173035 242.925995,298.769775 C242.928116,296.285980 242.781464,293.766174 244.587921,291.163147 C244.862701,290.752411 244.859390,290.874878 244.799698,290.861115 C248.079712,288.115204 251.982635,288.550598 255.661621,289.426208 C259.334991,290.300446 260.038086,293.515808 260.058502,296.897461 C260.118561,306.852295 260.079987,316.807068 260.083862,326.761810 C260.087982,337.380310 260.133636,347.998932 260.052032,358.617188 C260.033081,361.082733 260.251709,363.679321 257.412048,365.651672 z"/><path fill="#F4EADA" opacity="1.000000" stroke="none" d=" M177.670959,191.897919 C184.366913,193.264389 185.295471,197.459091 185.125046,203.298157 C184.712326,217.437592 184.721664,231.604309 185.084747,245.746582 C185.362854,256.578247 183.749512,267.304474 183.967331,278.577545 C180.473770,282.003815 176.765427,281.479889 172.652466,279.384583 C171.451157,272.327881 172.131714,265.604645 171.844589,258.433960 C170.576675,256.763855 170.527161,255.391953 171.454712,253.571747 C171.621948,244.472794 171.516937,235.719193 171.565750,226.533905 C172.375748,216.660797 171.830353,207.207428 171.990173,197.760742 C172.031204,195.334595 171.988937,192.963318 175.575699,192.242035 C176.440964,191.955399 176.889923,191.880325 177.670959,191.897919 z"/><path fill="#BC3922" opacity="1.000000" stroke="none" d=" M257.428223,365.823059 C258.140167,363.943573 258.003143,361.771393 258.002441,359.609619 C257.995697,338.994873 258.001343,318.380096 258.002899,297.765350 C258.003387,291.003693 258.002655,291.005127 251.196426,290.978760 C249.367813,290.971649 247.539230,290.952911 245.225327,290.893433 C244.785294,289.850952 244.776657,288.848572 244.886307,287.859314 C245.173004,285.272949 243.284912,281.798340 245.385910,280.277252 C248.373352,278.114380 252.466156,279.446136 256.092316,279.439148 C257.449310,279.436523 258.178925,280.131439 258.233337,281.604126 C258.294647,283.262939 258.777588,284.927429 258.682373,286.566528 C258.462555,290.351654 260.298676,291.688660 263.758301,291.078705 C268.725159,290.203003 269.871643,292.328217 269.712250,297.053894 C269.409485,306.028778 269.807892,315.027344 269.989380,324.471985 C270.000763,325.935913 269.937836,326.943909 269.943756,328.328796 C270.172058,328.970764 270.331543,329.235840 270.642090,329.941376 C270.252472,335.302795 270.704102,340.202515 270.994537,345.116028 C271.137299,347.531372 271.426636,350.084534 269.536621,352.632416 C269.432892,355.466980 269.450043,357.947083 269.797882,360.379883 C270.366608,364.357513 268.528442,365.792938 264.810028,365.678925 C262.502686,365.608154 260.190033,365.710754 257.428223,365.823059 z"/><path fill="#B0C1C4" opacity="1.000000" stroke="none" d=" M319.194000,278.189453 C318.904297,251.727783 318.944580,225.611191 319.018921,199.494720 C319.024536,197.520416 318.659515,195.496262 319.757690,193.255157 C323.023865,192.018463 326.108063,192.763107 329.530457,192.313477 C332.151733,194.603180 330.408844,197.551697 330.896118,200.642395 C330.827515,201.082626 330.584717,201.513260 330.716827,201.722183 C330.899750,203.691040 330.950562,205.450974 330.926086,207.645508 C330.040283,219.024796 330.721680,229.985519 330.497864,241.379868 C330.511353,243.270050 330.463104,244.717514 330.690857,246.566254 C330.888214,248.732086 330.937225,250.495331 331.057190,252.698975 C331.128143,253.139389 330.971130,253.154343 330.892334,253.157974 C330.117981,259.927612 330.635773,266.712311 330.512238,273.487396 C330.413300,278.914276 330.445984,278.968384 324.933655,278.981018 C323.128723,278.985168 321.283752,279.262665 319.194000,278.189453 z"/><path fill="#BD351E" opacity="1.000000" stroke="none" d=" M244.638260,290.787415 C244.908859,314.854431 244.955032,338.956451 245.006180,363.526794 C244.600204,364.391571 244.113632,364.539581 243.194153,364.257874 C241.568237,364.131134 240.299683,364.185822 238.656494,364.164795 C233.387604,365.795044 232.636856,362.764435 232.487869,358.619507 C232.447479,357.392975 232.419708,356.578491 232.513947,355.372253 C232.950714,353.885498 232.539322,352.955048 231.773254,351.703613 C230.819290,347.697754 230.354324,344.061676 232.313232,340.164154 C232.530472,339.795898 232.789856,339.375427 232.929382,339.171570 C233.977341,336.967865 233.305679,334.863800 233.398895,332.475464 C233.177185,331.215637 233.031403,330.295532 232.722534,329.065430 C232.273148,328.709564 231.986832,328.663666 231.602539,328.192566 C231.555435,327.179443 231.680313,326.607635 232.002136,325.623657 C233.101578,315.597809 232.238022,305.947235 233.100159,296.313538 C233.509003,291.745026 235.028595,290.493622 239.105911,290.978516 C240.418945,291.134705 241.765961,290.982544 243.545105,291.067108 C243.997818,291.004944 244.413834,290.822388 244.638260,290.787415 z"/><path fill="#FDF7EA" opacity="1.000000" stroke="none" d=" M209.348190,179.742828 C193.276749,180.345596 196.168732,178.621765 196.008545,167.127686 C195.941895,162.345840 196.011749,157.562073 195.969162,152.301086 C195.964508,149.512146 196.010223,147.201324 196.124817,144.460678 C199.339523,144.765045 198.631119,147.515869 198.923462,149.585693 C199.221054,151.692596 199.934525,152.926132 202.236588,152.965622 C204.625610,153.006607 205.895706,152.056412 206.048386,149.565186 C206.209641,146.933853 206.564606,144.313934 209.049500,142.169235 C212.598999,141.331863 215.793320,141.197556 219.349945,142.272415 C224.513580,148.973740 222.330170,155.881516 214.971497,157.310715 C211.943436,157.898834 210.407211,159.057663 210.731888,162.615036 C211.195221,167.691605 211.529068,172.845337 210.312256,178.339691 C210.010605,178.993225 209.853485,179.237305 209.348190,179.742828 z"/><path fill="#B0C1C4" opacity="1.000000" stroke="none" d=" M232.426682,327.750916 C232.372055,328.213104 232.482574,328.478241 232.521027,328.616821 C229.989227,328.840149 227.419006,328.924866 224.387604,328.942505 C217.259628,328.050201 210.568863,328.669983 203.479630,328.691895 C201.206406,328.781158 199.344040,328.721741 197.235931,328.350830 C194.230331,324.813019 194.552658,321.271667 196.194824,317.202454 C199.571152,314.170532 203.226974,315.035950 207.230576,315.198334 C212.239899,314.840942 216.788376,314.865997 221.780090,315.162659 C224.035278,315.468597 225.712509,314.585541 227.952972,314.576721 C230.015442,314.537567 231.508698,314.788757 232.680099,316.672424 C232.967621,320.511658 233.387146,323.923737 232.426682,327.750916 z"/><path fill="#1B2B41" opacity="1.000000" stroke="none" d=" M269.622284,330.945038 C269.743744,330.172729 269.770355,329.874756 269.904785,329.141266 C280.080933,329.297607 290.131500,329.101776 300.604065,328.085754 C307.631134,329.013184 305.842834,334.044220 305.993927,338.561768 C302.659393,342.263092 298.285950,340.433960 294.018097,341.458069 C287.103058,342.571594 280.615112,342.020050 274.145752,341.929749 C271.056915,341.886658 269.163055,340.391907 269.475647,336.904449 C269.638367,335.089172 269.480621,333.248383 269.622284,330.945038 z"/><path fill="#1B2B41" opacity="1.000000" stroke="none" d=" M197.331711,340.256470 C196.244263,338.584290 196.134232,337.124664 195.955032,335.630249 C195.449081,331.410919 196.844025,329.694214 201.403702,329.892181 C209.501602,330.243744 217.641464,330.298523 225.733078,329.881744 C230.800735,329.620728 232.854248,331.213196 232.034546,336.261963 C231.903625,337.068359 232.018555,337.914673 232.018219,339.174438 C230.817886,341.902832 228.624390,342.001678 226.468796,342.015747 C221.034729,342.051147 215.597214,342.286713 209.678314,341.826660 C205.319733,341.773651 201.308731,343.094208 197.331711,340.256470 z"/><path fill="#4C5F70" opacity="1.000000" stroke="none" d=" M269.536011,330.773865 C270.260803,340.023895 270.260742,340.015106 280.230469,339.949036 C284.507477,339.920715 288.784760,339.937378 293.530029,339.957184 C297.140533,343.894653 296.557800,348.000641 294.274506,352.534637 C286.001038,352.928741 278.080170,352.964386 269.713257,353.004089 C269.296448,345.697754 269.325684,338.387390 269.536011,330.773865 z"/><path fill="#C64B2D" opacity="1.000000" stroke="none" d=" M220.366837,143.501678 C216.627609,143.158829 213.273590,143.110626 209.466629,143.127899 C205.024216,145.799713 200.987396,145.823044 196.576080,143.047836 C196.211594,141.684525 196.138702,140.688263 196.148560,139.692841 C196.229736,131.490692 196.233353,131.311386 204.295059,131.264801 C207.672668,131.245285 208.649124,129.878387 208.643478,126.850372 C208.633865,121.694504 208.993271,116.530380 208.797241,111.384979 C208.656250,107.684143 209.561981,105.486069 213.687073,106.140739 C219.019714,106.987061 220.364624,104.651588 220.157455,99.565392 C219.951050,94.498505 221.080963,89.428413 220.782806,84.250450 C220.564545,80.459961 224.237366,82.491516 226.445892,81.868599 C224.184219,85.923973 223.486420,90.344048 223.673431,95.377258 C224.110809,100.225204 224.855759,104.734962 220.825043,108.608368 C219.838608,109.066544 220.662308,108.888306 220.022751,109.076508 C212.027695,111.429268 212.059402,111.429474 212.007599,119.822578 C211.987137,123.137627 212.304672,126.470863 211.575912,130.149048 C211.379044,131.523453 211.176193,132.504486 211.103989,133.500092 C210.702866,139.030441 210.832047,139.203049 216.246628,140.186905 C217.405441,140.397446 218.534622,140.636444 219.697601,141.741821 C230.258133,141.992401 240.538452,141.984222 250.818665,142.011444 C252.986816,142.017181 255.127975,141.954025 257.589478,141.077316 C260.234528,141.382553 262.701263,140.164093 264.869965,142.322296 C264.039154,144.535828 262.247375,145.037491 260.408875,144.954163 C250.494751,144.504745 240.670609,146.453278 230.766541,146.004578 C227.318497,145.848373 223.857346,145.584503 220.366837,143.501678 z"/><path fill="#4C5F70" opacity="1.000000" stroke="none" d=" M208.732239,340.432312 C216.421494,339.993683 223.761978,339.920013 231.559555,339.726349 C232.016647,339.606354 232.264847,339.729248 232.397644,339.762573 C232.676300,343.902222 232.822128,348.008545 233.023560,352.579376 C232.930130,353.150299 232.781082,353.256683 232.384460,353.244080 C224.685654,354.422607 217.222839,354.554871 209.355225,353.199463 C205.871613,349.104004 206.427490,344.983795 208.732239,340.432312 z"/><path fill="#C64B2D" opacity="1.000000" stroke="none" d=" M257.744781,68.639343 C257.828461,69.068321 257.417694,69.121620 257.210754,69.130173 C249.924515,69.050583 245.695145,71.924232 246.062988,79.623245 C246.076172,79.899307 245.717117,80.171631 245.229004,80.693359 C244.970749,80.970467 244.994019,80.999084 244.978867,80.984711 C241.703232,83.849106 238.038803,83.284843 233.634476,81.586182 C232.939636,78.957161 233.308243,76.866272 232.839325,74.984016 C231.524460,69.706291 233.995743,68.473785 238.533875,69.164284 C243.429626,69.909195 244.827042,67.772797 244.572433,63.032658 C244.216049,56.397564 248.552689,53.700802 255.226883,55.699799 C257.040680,56.243061 256.908844,57.449501 256.998627,58.757179 C257.214996,61.908546 257.439728,65.059341 257.744781,68.639343 z"/><path fill="#C0C4C1" opacity="1.000000" stroke="none" d=" M306.407654,327.927795 C305.846283,327.572784 305.654633,327.340363 305.195831,327.052551 C302.246765,323.692474 302.337860,320.263550 304.669098,316.328186 C305.133759,315.660614 305.333252,315.425354 305.789581,315.119324 C307.330475,313.596893 309.030365,312.952362 310.909058,313.027161 C314.873840,313.185089 316.155731,311.089813 315.980591,307.471344 C315.884857,305.493561 315.831024,303.488495 316.086884,301.523682 C316.336456,299.607697 316.362640,297.438141 319.164734,297.183411 C319.499146,307.491638 319.599457,317.440643 319.046783,327.724548 C318.698700,328.059998 318.305206,328.018890 318.129089,327.928772 C317.546875,327.600189 317.109314,327.502716 316.334991,327.706940 C315.569397,327.906677 315.109222,327.945465 314.307251,327.920807 C313.808044,327.766754 313.650635,327.676178 313.259613,327.725769 C310.965698,327.908875 308.905334,327.951752 306.407654,327.927795 z"/><path fill="#27415C" opacity="1.000000" stroke="none" d=" M294.389313,352.927643 C293.941010,348.898743 293.960114,344.904419 293.988678,340.445435 C297.543182,337.994598 301.394165,339.433105 305.532562,339.003479 C305.992462,340.004974 305.976471,340.994843 306.004639,341.983459 C306.322113,353.128784 306.323914,353.128723 294.389313,352.927643 z"/><path fill="#27415C" opacity="1.000000" stroke="none" d=" M208.613007,340.043091 C209.040833,344.083557 209.000656,348.099701 208.962112,352.583679 C198.531631,356.169922 195.669876,353.843079 196.884094,343.250732 C196.978134,342.430359 196.936783,341.594482 196.959991,340.348328 C200.689407,339.960114 204.417221,339.989441 208.613007,340.043091 z"/><path fill="#BC371F" opacity="1.000000" stroke="none" d=" M222.387344,95.316299 C222.003601,92.722092 222.223969,90.428673 221.927170,88.204269 C221.444794,84.589249 222.996048,82.857590 226.608505,82.210236 C227.944061,81.722839 229.100830,81.480049 230.699402,81.302292 C232.011169,81.545555 232.959335,81.492531 233.912415,82.591072 C235.479141,86.984360 235.504181,90.957855 233.460785,95.242844 C229.687897,97.551643 226.227264,97.695915 222.387344,95.316299 z"/><path fill="#DD4F27" opacity="1.000000" stroke="none" d=" M171.286224,253.172943 C171.792999,254.546616 171.859024,255.866821 171.849548,257.577606 C169.898193,264.973145 169.898193,264.973145 160.487518,265.011261 C160.039841,264.529633 160.058731,264.038940 160.058762,263.548248 C160.059494,253.047562 160.059082,253.047562 171.286224,253.172943 z"/><path fill="#DD4F27" opacity="1.000000" stroke="none" d=" M157.676697,265.389771 C159.938522,269.180237 158.625275,273.190765 159.009033,277.520294 C155.958054,280.672913 152.418335,280.328552 148.462311,279.363953 C148.103058,279.093689 147.977646,278.978455 147.914810,278.920929 C148.398544,274.709686 147.138046,270.476868 148.792786,266.164124 C150.748871,265.035614 152.455963,265.688049 154.436066,265.624390 C155.607666,265.599945 156.432648,265.480164 157.676697,265.389771 z"/><path fill="#F9EEDD" opacity="1.000000" stroke="none" d=" M196.177490,143.015839 C200.196533,142.806137 204.146942,142.931870 208.555527,143.125488 C208.324234,145.396530 207.728165,147.628601 208.015182,149.959290 C208.484375,153.768875 207.009460,155.045151 203.059830,155.143188 C198.397064,155.258911 196.281113,153.961487 196.958389,149.085800 C197.155426,147.667450 196.762573,146.167160 196.416901,144.367645 C196.165421,143.804321 196.137131,143.577805 196.177490,143.015839 z"/><path fill="#D4D4CE" opacity="1.000000" stroke="none" d=" M196.764984,316.676575 C197.051376,320.421326 197.043030,323.771667 197.012421,327.580688 C196.531708,328.020782 196.073242,328.002197 195.278259,327.911438 C193.211853,327.154999 191.417297,327.616699 189.351471,327.686646 C188.580017,327.881836 188.110214,327.931183 187.291901,327.906738 C184.272232,326.250458 186.095673,323.560913 185.078125,321.257996 C183.637756,319.661346 184.062988,318.088196 184.310425,316.261230 C188.542862,313.097534 192.518372,314.245514 196.764984,316.676575 z"/><path fill="#BC3922" opacity="1.000000" stroke="none" d=" M319.060486,328.294373 C318.721344,318.059692 318.744019,308.059387 318.668304,297.611023 C315.736908,292.974426 317.233063,288.329926 317.274170,283.371704 C317.508240,279.708069 318.926819,278.104095 322.342590,278.463654 C324.611725,278.702515 326.921661,278.425537 329.608093,278.867554 C329.041840,279.953064 327.886536,279.951996 326.719574,280.005981 C320.011017,280.316406 320.005066,280.326294 320.002014,286.814819 C319.996674,298.231049 319.993835,309.647308 320.002014,321.063538 C320.006866,327.758606 320.017731,327.748444 326.911743,328.013000 C327.724915,328.044189 328.530914,328.261658 329.669861,328.611328 C326.469666,328.873535 322.929474,329.281403 319.060486,328.294373 z"/><path fill="#FDF7EA" opacity="1.000000" stroke="none" d=" M175.564789,191.948364 C173.421173,193.597412 173.003387,195.952621 172.935089,198.810593 C172.722504,207.706299 173.824600,216.635574 172.026428,225.800751 C171.581558,215.625565 171.547256,205.145905 171.245316,194.673965 C171.148788,191.326019 173.197083,191.895935 175.564789,191.948364 z"/><path fill="#C64B2D" opacity="1.000000" stroke="none" d=" M281.234802,91.713623 C281.046722,82.020065 281.046722,82.020065 269.481689,81.988823 C268.825928,81.731110 268.435608,81.451683 268.462433,81.220612 C269.265808,74.289940 266.183075,70.567711 259.117920,69.642624 C259.970520,69.252502 260.965515,69.144028 261.961212,69.137924 C268.939270,69.095146 269.125916,69.107002 268.941589,75.858818 C268.837250,79.681305 269.964905,81.157028 273.997742,81.135437 C282.771667,81.088455 282.772736,81.289383 281.234802,91.713623 z"/><path fill="#BC3922" opacity="1.000000" stroke="none" d=" M355.059387,352.661835 C355.062683,353.066254 355.046570,353.249847 355.016968,353.709595 C344.401672,352.971893 344.360565,352.973175 344.028503,342.242737 C343.976196,340.552612 343.295715,339.863251 341.405243,339.508423 C342.559174,337.180267 343.824341,338.130524 344.627533,339.869446 C345.078369,340.845581 344.981384,342.110809 344.994385,343.247375 C345.104767,352.889801 343.629639,351.935547 354.552399,351.998657 C355.009857,351.998779 355.039948,352.441040 355.059387,352.661835 z"/><path fill="#BC3922" opacity="1.000000" stroke="none" d=" M330.350739,329.380005 C331.245514,329.315155 332.119659,330.035767 331.899109,331.067627 C330.699982,336.677185 333.913940,338.315338 338.771454,339.018250 C330.301239,340.658112 330.301239,340.658112 330.350739,329.380005 z"/><path fill="#E3DED4" opacity="1.000000" stroke="none" d=" M330.264893,243.270370 C330.176575,231.540939 330.270172,220.135757 330.607269,208.405334 C330.877502,219.395645 330.904205,230.711182 330.876221,242.489517 C330.696594,243.166397 330.571716,243.380508 330.264893,243.270370 z"/><path fill="#D4D4CE" opacity="1.000000" stroke="none" d=" M203.528198,328.904053 C209.771225,327.147186 216.532333,328.005737 223.604309,328.625732 C217.280151,328.906128 210.633896,328.936829 203.528198,328.904053 z"/><path fill="#E3DED4" opacity="1.000000" stroke="none" d=" M319.078552,190.536438 C317.076752,185.969772 318.071869,180.826141 318.612061,175.375153 C318.951416,180.052261 319.057495,185.064407 319.078552,190.536438 z"/><path fill="#BC371F" opacity="1.000000" stroke="none" d=" M232.380524,358.609863 C233.828018,360.418823 233.154358,364.367859 237.877502,364.062408 C232.254166,365.597748 232.129669,365.492340 232.380524,358.609863 z"/><path fill="#E3DED4" opacity="1.000000" stroke="none" d=" M329.479950,192.097809 C327.042999,193.846542 323.906830,192.664215 320.465088,192.953781 C320.025726,192.930664 320.015198,192.505569 320.014771,192.292969 C323.021790,192.062271 326.029236,192.044144 329.479950,192.097809 z"/><path fill="#F4EADA" opacity="1.000000" stroke="none" d=" M184.778687,321.450531 C186.907761,322.611359 185.288879,325.333405 186.784149,327.499146 C186.516495,327.877136 186.089584,327.921356 185.342651,327.923523 C184.942993,325.881409 184.863358,323.881348 184.778687,321.450531 z"/><path fill="#BC371F" opacity="1.000000" stroke="none" d=" M233.211151,332.548279 C234.368073,334.194672 234.205093,336.293854 233.300369,338.688873 C233.079041,336.965424 233.089172,334.963104 233.211151,332.548279 z"/><path fill="#E3DED4" opacity="1.000000" stroke="none" d=" M318.902649,165.541489 C317.502991,163.932892 317.854858,161.779068 318.636261,159.325226 C318.897430,161.063110 318.930634,163.087250 318.902649,165.541489 z"/><path fill="#E3DED4" opacity="1.000000" stroke="none" d=" M313.566620,154.997971 C312.134155,156.333374 310.289642,156.491699 308.268524,154.755035 C309.777832,154.582657 311.465576,154.742462 313.566620,154.997971 z"/><path fill="#F4EADA" opacity="1.000000" stroke="none" d=" M189.468109,327.884583 C190.745209,326.608856 192.559937,326.881653 194.668228,327.622681 C193.256607,327.871735 191.571503,327.904205 189.468109,327.884583 z"/><path fill="#BC371F" opacity="1.000000" stroke="none" d=" M154.442200,265.573761 C153.153564,265.834473 151.524445,265.949219 149.540695,266.018860 C150.742279,265.050507 152.441559,265.415344 154.442200,265.573761 z"/><path fill="#BC371F" opacity="1.000000" stroke="none" d=" M232.206894,353.438965 C232.136902,353.125031 232.606888,353.074402 232.843018,353.059143 C233.800446,353.648102 233.961212,354.242981 232.842773,354.900269 C232.516251,354.571289 232.396561,354.162079 232.206894,353.438965 z"/><path fill="#C0C4C1" opacity="1.000000" stroke="none" d=" M330.060028,243.302521 C330.082977,242.946121 330.452057,242.967072 330.636780,242.959686 C330.866669,244.025101 330.911896,245.097916 330.898132,246.569794 C329.929535,246.021194 330.010834,244.833389 330.060028,243.302521 z"/><path fill="#E3DED4" opacity="1.000000" stroke="none" d=" M318.852203,155.634018 C318.087524,155.838638 317.275787,155.689774 316.248413,155.313782 C316.956879,155.151291 317.881012,155.215912 318.852203,155.634018 z"/><path fill="#D4D4CE" opacity="1.000000" stroke="none" d=" M316.349243,327.921326 C316.443390,327.236450 316.957245,327.016663 317.794739,327.657959 C317.524933,327.884033 317.096893,327.929382 316.349243,327.921326 z"/><path fill="#BC371F" opacity="1.000000" stroke="none" d=" M243.067596,364.259644 C243.320053,364.053223 243.803284,364.029938 244.648849,364.000916 C245.011169,363.995117 245.032806,364.464325 245.011780,364.697693 C244.426620,364.768280 243.862518,364.605530 243.067596,364.259644 z"/><path fill="#C64B2D" opacity="1.000000" stroke="none" d=" M233.194000,81.804321 C232.547455,81.858940 232.054016,81.755180 231.350891,81.509369 C231.543533,81.275162 231.945847,81.183006 232.650757,81.021835 C232.953339,80.952820 233.083679,81.089348 233.148758,81.157700 C233.213837,81.226044 233.347076,81.645950 233.194000,81.804321 z"/><path fill="#D4D4CE" opacity="1.000000" stroke="none" d=" M313.261292,327.909668 C313.207428,327.513153 313.458038,327.424255 313.871643,327.728333 C313.965454,327.857361 313.496582,327.953339 313.261292,327.909668 z"/><path fill="#E3DED4" opacity="1.000000" stroke="none" d=" M330.885864,201.717926 C330.510101,201.775848 330.423737,201.551102 330.708679,201.169739 C330.827515,201.082626 330.922791,201.504730 330.885864,201.717926 z"/><path fill="#F9EEDD" opacity="1.000000" stroke="none" d=" M223.240967,316.515381 C218.302979,316.798431 213.621048,316.839935 208.476044,316.835815 C205.673523,312.781250 201.194733,309.725830 202.605331,303.832397 C207.487640,302.191406 208.636703,298.941071 208.105377,294.479187 C207.794785,291.871002 208.151886,289.192383 208.003159,286.554199 C207.880630,284.380096 208.646240,281.563293 205.182785,281.179565 C202.042130,280.831604 200.148743,282.138306 199.811310,285.487518 C199.645294,287.135315 199.110199,288.738464 197.128204,289.817352 C193.572342,290.145508 192.617203,288.215210 192.799515,285.547455 C192.970505,283.045471 193.703629,280.659424 195.691895,278.345581 C196.335175,274.300629 196.669113,270.587860 197.006592,266.435547 C201.173630,265.329498 204.703522,263.969757 204.399734,258.011139 C206.490128,259.983887 206.173569,261.690887 205.720627,263.120819 C204.404953,267.274445 206.228241,269.386902 210.002899,270.559204 C211.741440,271.099182 213.376053,271.972534 215.113113,272.518799 C218.150314,273.473816 220.212112,275.054169 221.162796,278.404938 C222.501144,283.122131 227.678391,286.694702 225.316940,292.531281 C230.077286,293.405579 227.433578,300.051697 232.408356,301.176483 C233.900726,303.153107 233.666031,305.046936 232.675446,307.259369 C228.739243,309.693176 224.443344,311.251312 223.240967,316.515381 z"/><path fill="#1B2B41" opacity="1.000000" stroke="none" d=" M213.259995,228.716980 C212.571716,228.902084 212.121857,228.955505 211.336121,228.947281 C209.581879,226.846985 209.443298,224.406464 209.621902,222.169830 C210.286331,213.850021 209.817581,205.527832 210.013062,197.211121 C210.122849,192.540192 211.129456,191.546875 215.545242,191.553848 C219.963837,191.560822 221.294708,192.678650 221.427002,197.057724 C221.623154,203.549332 221.495514,210.047287 221.483261,216.542419 C221.478821,218.891556 221.553726,221.207321 222.778992,223.761505 C225.440826,227.587433 229.717789,224.970978 232.920670,227.248718 C234.716980,229.002319 235.072601,230.994385 234.879013,232.899033 C234.458160,237.040070 236.227661,239.282440 240.519440,240.235214 C240.644714,244.454605 237.828568,246.137451 234.306335,247.388367 C233.091553,245.756973 233.742737,244.100571 233.089371,242.312958 C229.514420,241.117859 226.224045,242.190491 222.504059,241.939362 C219.230789,238.514908 219.392059,234.667297 220.843552,230.345886 C219.373840,227.663132 216.912369,229.549255 214.411285,228.916504 C213.816879,228.759857 213.657654,228.672577 213.259995,228.716980 z"/><path fill="#16273D" opacity="1.000000" stroke="none" d=" M281.079651,227.759109 C280.710449,232.160889 282.108276,236.061508 281.887634,240.471527 C278.166718,241.188049 274.472656,241.466446 269.994263,241.550995 C267.276703,238.163071 267.653259,234.660919 268.364807,231.343567 C269.440765,226.327469 274.665894,224.774094 281.079651,227.759109 z"/><path fill="#E3DED4" opacity="1.000000" stroke="none" d=" M209.070404,180.408752 C209.000000,180.004272 209.019379,179.520096 209.028778,179.277985 C212.283508,176.127289 215.862595,176.574799 219.954559,178.289490 C222.883759,182.683548 222.505035,186.928650 220.713623,191.621185 C217.221802,192.999603 213.968094,192.332199 210.350403,192.137604 C209.853821,188.162521 210.535202,184.411392 209.070404,180.408752 z"/><path fill="#E3DED4" opacity="1.000000" stroke="none" d=" M220.684418,230.006439 C221.335846,233.715134 221.519104,237.425934 221.877960,241.548584 C221.060837,241.971863 220.068085,241.992950 219.075348,241.993195 C211.693604,241.995071 209.098450,238.958069 210.285446,231.832352 C210.543991,230.280350 211.568832,230.057343 212.769043,230.035919 C215.250824,229.991638 217.733780,230.013748 220.684418,230.006439 z"/><path fill="#1B2B41" opacity="1.000000" stroke="none" d=" M269.687805,246.576691 C269.786743,248.857498 269.740112,250.731354 269.305420,252.701828 C267.896790,252.965317 266.882874,253.036819 265.595123,252.356934 C263.939667,250.332901 263.064575,248.229630 260.194061,248.018829 C254.615021,247.609131 254.081985,246.353455 257.197327,241.138763 C260.966583,239.606995 264.410065,239.635056 268.244995,240.981903 C270.086060,242.649445 269.250671,244.514389 269.687805,246.576691 z"/><path fill="#131F30" opacity="1.000000" stroke="none" d=" M209.862091,192.144531 C212.982193,191.873779 216.009781,191.891556 219.487854,191.943939 C220.261871,191.909378 220.585419,191.840195 221.296402,192.081100 C222.625763,193.828690 223.019745,195.415146 223.031723,197.124420 C223.090149,205.455856 223.117188,213.787170 223.015411,222.118484 C222.996704,223.650558 222.716736,225.099823 221.395447,226.679642 C219.217499,224.801590 220.074020,222.192917 220.035446,219.774796 C219.918503,212.444794 219.893829,205.109634 220.043533,197.780777 C220.109360,194.558319 219.393219,192.926727 215.660797,192.894150 C211.764633,192.860138 210.887909,194.443665 210.949631,197.970016 C211.124542,207.965012 211.013794,217.965012 211.007904,228.424347 C211.000259,228.885635 210.569077,229.018127 210.346039,228.984604 C208.507324,224.805389 209.350235,220.554642 209.454193,216.305176 C209.636047,208.872330 209.481018,201.432297 209.579529,193.510223 C209.683655,192.827759 209.726624,192.630402 209.862091,192.144531 z"/><path fill="#BC371F" opacity="1.000000" stroke="none" d=" M232.361786,307.335327 C232.867569,305.541351 232.911438,303.727478 232.892578,301.589539 C232.801651,301.060608 232.773483,300.855652 232.438080,300.607117 C232.527481,299.320801 232.505585,298.032532 232.686676,296.392303 C232.869843,295.578766 232.912094,295.123932 232.891632,294.330750 C232.562561,293.580750 232.460693,293.128967 232.666290,292.326141 C235.971985,288.817627 239.741745,291.013153 243.613342,290.899048 C243.098129,291.923157 241.939438,291.940582 240.759750,292.006714 C234.002090,292.385498 234.047195,292.397430 233.989258,299.359253 C233.914536,308.339935 233.759766,317.320007 233.425232,326.652100 C231.741730,324.229828 232.833649,321.245178 232.498077,317.931976 C232.495010,315.609802 230.986755,314.245087 230.693146,311.989380 C230.325851,309.914368 230.656296,308.474884 232.361786,307.335327 z"/><path fill="#131F30" opacity="1.000000" stroke="none" d=" M265.685730,251.646042 C266.833099,252.075348 267.643402,252.228760 268.685516,252.590317 C268.917328,252.798462 268.831146,253.010345 268.930481,253.067062 C265.344452,253.907364 261.618469,253.338776 257.467834,253.321457 C250.381790,253.136337 243.727646,252.815460 237.105530,253.142776 C233.239151,253.333878 232.090820,252.128372 232.679092,248.468964 C232.965729,246.685913 232.750992,244.822266 232.768280,242.532928 C234.379501,243.081650 233.919785,244.728851 234.052277,246.585800 C234.454163,247.435226 234.878082,247.869080 235.393372,248.604065 C235.902222,249.552734 236.425735,250.015015 237.573639,250.052368 C239.828644,250.146500 241.776062,249.923126 244.079620,250.405609 C247.231735,250.555466 249.993393,250.499603 253.175751,250.470901 C254.440735,250.376114 255.274216,250.160767 256.552063,250.325439 C258.389130,250.538422 259.810303,250.502380 261.661072,250.496994 C263.291687,250.360168 264.398651,250.574631 265.685730,251.646042 z"/><path fill="#E3DED4" opacity="1.000000" stroke="none" d=" M209.451340,193.386719 C209.772064,204.691299 209.903458,216.357483 210.078918,228.487366 C208.525299,226.890457 207.719788,224.305573 208.147247,221.981033 C209.872696,212.597946 208.327087,203.129959 209.451340,193.386719 z"/><path fill="#FDF7EA" opacity="1.000000" stroke="none" d=" M257.358582,253.405853 C260.718475,253.130707 264.414490,253.076355 268.570129,253.072891 C265.316406,254.756821 261.497284,254.005798 257.358582,253.405853 z"/><path fill="#131F30" opacity="1.000000" stroke="none" d=" M269.905518,246.574280 C268.690552,245.736206 269.039429,244.185699 268.974060,242.341751 C269.142181,241.849747 269.303467,241.736710 269.707062,241.792725 C269.949341,241.961746 269.948151,242.000519 269.965607,242.009094 C269.981293,243.400101 269.979492,244.782501 269.905518,246.574280 z"/><path fill="#F9EEDD" opacity="1.000000" stroke="none" d=" M232.574554,292.065430 C232.873901,292.451599 232.915207,292.893646 232.892731,293.664062 C231.605728,293.656921 230.723114,293.228119 232.574554,292.065430 z"/><path fill="#F9EEDD" opacity="1.000000" stroke="none" d=" M232.608475,296.354980 C232.829941,297.399109 232.832260,298.764618 232.482727,300.346802 C232.217010,299.267792 232.303177,297.972107 232.608475,296.354980 z"/><path fill="#131F30" opacity="1.000000" stroke="none" d=" M213.260315,228.910095 C213.218674,228.526474 213.470184,228.447205 213.876099,228.729004 C213.976089,228.847137 213.499039,228.971497 213.260315,228.910095 z"/><path fill="#F6EBDB" opacity="1.000000" stroke="none" d=" M220.327942,178.793518 C216.652191,179.013611 213.299057,179.016113 209.492050,179.027252 C208.603775,172.603424 209.485840,166.162918 208.292160,159.696259 C207.432770,155.040573 212.460754,154.980621 214.469833,155.380493 C220.816849,156.643799 220.026337,152.774384 220.000656,149.076797 C219.989120,147.417480 219.992004,145.758041 219.985001,143.652847 C234.695129,144.014877 249.393372,142.818787 264.559265,142.762939 C268.377319,142.624771 271.737183,142.594727 275.528931,142.415283 C277.909210,141.908188 279.880859,141.945190 282.101746,142.188934 C282.241882,143.779648 282.059540,145.098419 282.027496,146.420837 C281.825653,154.752365 281.835876,154.897552 289.850250,154.942642 C293.196991,154.961487 294.182983,156.284439 294.075745,159.405716 C293.910645,164.212204 293.786041,169.044968 294.105255,173.835846 C294.391357,178.130035 292.618530,179.505722 288.620483,179.048111 C286.816376,178.841599 284.974304,178.966415 282.702972,178.943970 C279.991547,181.164536 277.220459,181.203522 273.902344,180.653549 C272.235596,180.346497 271.214630,179.712097 269.876892,178.785767 C267.772369,176.176529 269.077972,173.275742 267.980377,170.465927 C267.502472,169.522842 267.098450,168.971176 266.129639,168.474777 C256.682281,166.911041 247.578171,167.072021 238.070435,168.407928 C236.076599,168.889755 234.435883,168.945419 232.451996,169.328400 C231.255508,169.475204 230.468567,169.710220 229.652939,169.784576 C222.599716,170.427597 222.599930,170.429962 221.240784,177.581589 C220.953674,178.154770 220.802139,178.365341 220.327942,178.793518 z"/><path fill="#135B96" opacity="1.000000" stroke="none" d=" M281.604614,191.790192 C281.885651,192.070602 282.117950,192.259293 282.089325,192.406158 C285.326233,196.963181 283.708099,202.061020 284.039764,206.876480 C284.163208,208.668243 284.111389,210.487106 283.712006,212.711884 C282.397919,216.644272 279.619415,217.933456 276.259125,217.881744 C272.574097,217.825058 270.806885,219.126709 270.835754,223.043762 C270.863922,226.866882 268.761200,229.335999 264.787018,229.485611 C260.492981,229.647247 258.403259,231.439133 258.919983,235.923187 C259.088318,237.383698 258.748779,238.886154 257.819244,240.595459 C257.117065,241.286697 256.640594,241.607635 255.755280,242.117249 C255.068878,242.402786 254.775940,242.476852 254.038666,242.669037 C250.673019,243.010056 247.969864,242.464890 245.360077,240.161133 C243.337021,236.129242 243.975616,232.354706 244.386215,228.548965 C244.759995,225.084473 244.342041,221.577759 244.741592,217.651352 C245.799210,214.835785 247.906326,214.101654 250.096909,214.097076 C254.209442,214.088455 255.024460,211.812988 255.001236,208.291794 C254.967209,203.137390 254.655533,197.969650 255.252594,192.372833 C254.617294,187.457458 254.908585,183.132294 257.508179,178.739716 C262.587372,176.288773 267.151733,175.710526 271.210327,180.510864 C271.467896,181.587234 271.402130,180.764450 271.413574,181.422287 C271.508148,186.857285 272.735748,191.214737 279.634827,190.541840 C280.256622,190.481201 280.831635,191.054108 281.604614,191.790192 z"/><path fill="#B0C1C4" opacity="1.000000" stroke="none" d=" M318.211121,282.667572 C319.184509,287.363617 318.630463,291.801727 318.649902,296.690491 C317.361908,301.019562 317.903687,304.999634 318.085388,308.879089 C318.308167,313.635437 316.550507,315.584015 311.829559,315.032623 C310.210266,314.843475 308.550629,315.000031 306.449951,314.999878 C305.941193,309.391235 306.058136,303.807404 305.136688,298.201111 C304.248596,292.797577 305.617218,287.354126 305.974121,281.926208 C306.112610,279.820160 307.108978,278.993805 309.108978,279.011780 C311.425415,279.032623 313.742523,278.985657 316.518555,278.962067 C318.386566,279.743042 317.808411,281.206116 318.211121,282.667572 z"/><path fill="#0D4A76" opacity="1.000000" stroke="none" d=" M256.812378,241.285431 C256.999664,239.380829 257.001892,237.722717 257.005127,236.064590 C257.020599,228.076569 257.013336,227.710068 264.899750,227.551010 C268.591217,227.476532 269.085052,226.023575 269.007080,223.167801 C268.785309,215.044083 269.190063,216.026337 276.395569,215.984833 C278.197479,215.974457 280.106537,216.282242 281.668579,214.236069 C285.262207,217.486206 283.972961,221.611740 283.335938,226.065338 C282.980591,226.763550 282.801575,227.022858 282.311768,227.638214 C282.001007,227.994263 281.733490,228.227814 281.558319,228.197678 C269.960876,227.682022 269.960876,227.682022 269.963196,241.501068 C269.949341,241.961746 269.465179,241.912750 269.223053,241.937759 C265.291656,241.978165 261.602417,241.993576 257.452148,242.019058 C256.870056,241.863388 256.748962,241.697647 256.812378,241.285431 z"/><path fill="#1B2B41" opacity="1.000000" stroke="none" d=" M282.429016,227.219391 C282.010284,222.968811 282.017517,218.936890 281.989044,214.440460 C281.965729,207.167694 281.978088,200.359451 282.025574,193.052124 C282.498260,192.617416 282.935822,192.681808 283.688141,192.853989 C284.168457,193.107056 284.334045,193.252319 284.750916,193.183075 C285.447418,192.905106 285.892639,192.841660 286.664673,192.874344 C292.147980,192.814590 292.709839,195.793686 292.610535,200.149567 C292.451599,207.122742 293.147156,214.106873 293.018005,221.102524 C292.900238,227.484879 292.969788,227.486267 286.768738,227.497543 C286.102112,227.498764 285.435486,227.497604 284.290009,227.494232 C283.492432,227.473557 283.173706,227.455795 282.429016,227.219391 z"/><path fill="#16273D" opacity="1.000000" stroke="none" d=" M281.901245,191.597839 C280.744446,192.042633 279.603363,191.997330 278.462006,191.989426 C269.598419,191.928009 269.598389,191.930237 270.348999,182.446533 C270.994110,181.023407 271.401367,179.936615 272.742035,179.156555 C275.777252,178.877472 278.556122,178.819153 281.795715,178.853943 C282.143250,183.006393 282.030060,187.065720 281.901245,191.597839 z"/><path fill="#B0C1C4" opacity="1.000000" stroke="none" d=" M304.537964,315.947021 C304.992706,319.307983 304.995209,322.672607 304.997009,326.489319 C303.676758,326.962799 302.346985,327.099091 301.039734,326.982758 C297.976990,326.710266 293.612549,328.709259 293.960907,322.567413 C294.277679,316.982880 295.079834,316.029358 301.116028,315.976837 C302.105927,315.968231 303.095856,315.959442 304.537964,315.947021 z"/><path fill="#131F30" opacity="1.000000" stroke="none" d=" M282.775696,227.222229 C293.005676,226.796768 291.917694,228.461365 291.978394,217.935516 C292.014801,211.626389 291.736938,205.303009 292.085541,199.012909 C292.287323,195.371124 290.850250,193.870026 287.275146,193.227783 C291.336090,192.019760 293.926025,192.915039 293.067078,198.206482 C292.701233,200.459961 293.016205,202.823944 293.105438,205.601486 C293.867493,209.686981 293.321655,213.343323 293.497833,217.435333 C293.472870,220.625534 293.551453,223.360291 293.284698,226.518890 C290.322632,229.707077 286.936127,227.276337 283.457703,227.932281 C282.856628,227.731522 282.703918,227.587357 282.775696,227.222229 z"/><path fill="#C0C4C1" opacity="1.000000" stroke="none" d=" M318.436218,282.548462 C316.798859,282.267944 317.049286,280.889313 316.984802,279.292877 C317.426025,278.640411 317.874298,278.324860 318.589050,277.926819 C330.018402,278.419647 329.985229,278.419556 330.017242,267.168823 C330.029907,262.711273 330.226471,258.254272 330.576416,253.479309 C330.854248,261.649292 331.728088,270.140320 330.358276,278.890076 C327.375732,279.036835 324.724396,279.087646 322.123077,278.751343 C319.343628,278.392029 318.659332,279.842133 318.436218,282.548462 z"/><path fill="#C64B2D" opacity="1.000000" stroke="none" d=" M282.700989,142.359299 C280.455811,142.464844 278.556824,142.470490 276.309326,142.371017 C280.284821,139.852356 284.834961,141.213562 289.650879,141.700989 C287.671112,142.044052 285.359161,142.151733 282.700989,142.359299 z"/><path fill="#FDF7EA" opacity="1.000000" stroke="none" d=" M293.563080,217.537048 C293.149719,214.327087 293.104248,210.648468 293.123901,206.517548 C294.789886,209.641708 293.670715,213.401550 293.563080,217.537048 z"/><path fill="#F4EADA" opacity="1.000000" stroke="none" d=" M293.120728,218.447662 C293.195221,218.005722 293.539307,217.988602 293.710144,217.981049 C293.793060,220.759216 293.705139,223.544952 293.368622,226.637268 C293.095428,224.259079 293.070831,221.574341 293.120728,218.447662 z"/><path fill="#16273D" opacity="1.000000" stroke="none" d=" M282.750916,227.000610 C283.000214,227.001282 282.999115,227.439606 283.004211,227.657639 C282.845093,227.927933 282.680847,227.980179 282.258789,228.013351 C282.001007,227.994263 281.987457,227.497421 281.995239,227.249084 C282.003021,227.000748 282.501617,226.999954 282.750916,227.000610 z"/><path fill="#131F30" opacity="1.000000" stroke="none" d=" M284.752930,192.888336 C285.002228,192.968567 284.648529,193.304962 284.648529,193.304962 C284.648529,193.304962 284.209106,193.225342 284.106018,193.093567 C284.169800,192.910583 284.336731,192.859360 284.752930,192.888336 z"/><path fill="#E75225" opacity="1.000000" stroke="none" d=" M222.001892,95.439865 C225.356918,94.982269 228.698395,94.980011 232.494659,94.978165 C236.273651,91.308578 240.100006,91.161942 244.621902,93.683533 C244.988327,95.162163 244.997910,96.323677 244.999680,97.485214 C245.011414,105.183929 245.018051,105.256645 237.461807,106.003197 C234.153305,106.330078 232.868149,107.905075 232.959915,111.196640 C233.112457,116.668167 232.876663,122.150757 233.039719,127.621674 C233.133789,130.777679 232.091339,132.212173 228.775299,132.026352 C218.251999,131.436569 220.174255,133.233475 219.987885,141.539551 C219.316284,141.991272 218.654694,141.998077 217.993118,141.997330 C207.974304,141.986084 207.807648,141.783020 209.735855,131.313004 C210.620438,130.460358 211.210129,129.622437 211.991806,129.604187 C218.299332,129.457092 218.023270,125.185410 218.047653,120.656776 C218.069260,116.639038 216.888336,112.390495 219.714615,108.316757 C223.164139,104.377068 221.610596,99.976776 222.001892,95.439865 z"/><path fill="#E25026" opacity="1.000000" stroke="none" d=" M244.987000,93.537300 C241.238281,94.174393 237.425674,93.457581 233.362885,94.920700 C232.973572,90.951408 232.997726,86.924248 233.031403,82.429901 C233.040909,81.962708 233.103394,81.587585 233.158615,81.406815 C236.827011,81.143158 240.440201,81.060272 244.508545,80.973862 C244.973007,85.004883 244.982315,89.039421 244.987000,93.537300 z"/><path fill="#E75225" opacity="1.000000" stroke="none" d=" M245.435974,80.979553 C244.971542,79.638100 244.970978,78.305725 244.973343,76.973358 C244.990448,67.316635 246.315002,66.348724 256.647156,68.920380 C257.005432,69.469666 257.008514,69.800606 257.008362,70.131546 C257.003815,81.027016 257.003784,81.027016 245.435974,80.979553 z"/><path fill="#DF4317" opacity="1.000000" stroke="none" d=" M148.071045,279.544098 C151.329605,277.724731 154.735550,277.978271 158.557922,277.980347 C159.003067,289.302338 158.853500,300.633759 159.087646,311.957275 C159.170471,315.961975 157.793793,317.579407 153.916031,316.975189 C148.890396,316.192139 147.695175,318.554626 147.907013,323.198181 C148.248276,330.679291 148.000107,338.187347 147.997513,345.684021 C147.994751,353.673248 147.629837,354.025391 139.412949,354.014404 C138.579987,354.013306 137.747025,354.017242 136.464340,354.029419 C136.008438,334.609467 136.016754,315.178925 135.982712,295.748444 C135.976593,292.258942 135.924622,289.677429 141.107712,290.570038 C146.619049,291.519165 147.977829,289.670532 147.996582,283.979553 C148.000961,282.651184 148.024384,281.322845 148.071045,279.544098 z"/><path fill="#F6EBDB" opacity="1.000000" stroke="none" d=" M195.557220,278.011108 C196.104965,280.294037 195.826294,282.461487 194.788116,284.575317 C193.916901,286.349182 193.155411,288.384430 196.635254,288.978790 C200.374023,292.516693 198.371353,296.981812 199.201416,301.269653 C199.531769,302.082947 199.798416,302.573486 200.654297,302.836731 C201.537109,302.987488 202.101471,303.183990 202.804306,303.767883 C202.938446,306.616089 204.070724,308.715363 205.929794,310.390045 C207.656021,311.945038 208.181458,313.834717 208.008972,316.412598 C204.663040,316.866058 201.313110,316.941925 197.511444,317.044434 C193.174271,316.703400 189.288803,316.335785 184.931915,315.965271 C184.491852,312.072937 184.523239,308.183563 184.372604,303.897797 C180.682861,300.304108 182.306763,296.183899 182.246185,291.939148 C183.849716,287.151733 182.605988,281.686188 187.723129,278.337372 C190.375351,278.019318 192.744278,278.014038 195.557220,278.011108 z"/><path fill="#C0C4C1" opacity="1.000000" stroke="none" d=" M184.276550,290.495483 C184.115967,294.836792 184.127396,298.740906 184.164703,303.073212 C173.547562,305.140533 173.436188,305.149414 172.608246,294.768494 C172.215637,289.845642 172.341309,284.881409 172.278687,279.477661 C175.901566,279.022644 179.477966,279.025879 183.506653,279.037537 C183.958954,279.045990 183.982864,279.018738 183.976044,279.021484 C185.405350,282.646820 184.082245,286.389252 184.276550,290.495483 z"/><path fill="#F9EEDD" opacity="1.000000" stroke="none" d=" M184.338654,290.625824 C184.068024,287.268372 184.031509,283.604034 183.982117,279.481995 C185.084747,278.717468 186.200256,278.410736 187.661087,278.064301 C186.206680,281.939728 184.402573,285.853668 184.338654,290.625824 z"/><path fill="#D4D4CE" opacity="1.000000" stroke="none" d=" M232.560455,316.694733 C232.851868,320.005981 232.944611,323.055847 233.124176,326.554810 C233.076477,327.319763 232.941971,327.635712 232.589752,328.082397 C232.246414,324.779999 232.120773,321.346863 232.002106,317.450439 C232.126648,316.802551 232.244232,316.617981 232.560455,316.694733 z"/><path fill="#F6EBDB" opacity="1.000000" stroke="none" d=" M232.389709,307.295410 C232.867035,308.619141 232.910416,309.883057 232.889755,311.524048 C231.780914,313.614990 230.047104,314.509277 228.218475,315.845581 C226.638779,316.821075 225.208115,317.029297 223.349426,316.820526 C223.039551,308.917145 223.039551,308.917145 232.389709,307.295410 z"/><path fill="#F9EEDD" opacity="1.000000" stroke="none" d=" M228.338104,316.129883 C228.301041,313.733032 229.696320,312.397583 232.425232,311.936951 C232.856888,313.347961 232.888031,314.794769 232.839142,316.598846 C232.759109,316.956085 232.383728,316.962830 232.196411,316.974976 C231.065826,316.073456 229.865555,316.168060 228.338104,316.129883 z"/><path fill="#DF4317" opacity="1.000000" stroke="none" d=" M219.535645,107.999359 C219.996109,113.660378 219.695129,119.345268 220.098328,124.979767 C220.449005,129.880310 218.679092,131.740921 213.907440,131.025940 C212.929916,130.879471 211.911896,131.003479 210.455963,131.000580 C210.001129,125.337669 210.309952,119.655273 209.911636,114.022888 C209.566116,109.137466 211.297470,107.248131 216.086548,107.981354 C217.062531,108.130775 218.081100,108.001923 219.535645,107.999359 z"/><path fill="#FDF7EA" opacity="1.000000" stroke="none" d=" M198.308594,304.226624 C195.930771,299.438141 197.481216,294.612793 197.007538,289.465027 C198.088837,287.951202 197.942673,286.587494 198.005783,285.259949 C198.250504,280.112091 203.342407,277.110107 208.056366,279.293304 C209.692276,280.050964 209.982254,281.453125 209.983978,283.019348 C209.990387,288.850830 209.959198,294.682526 209.997955,300.513763 C210.030243,305.372131 206.362167,303.620697 203.438293,304.010529 C202.247513,304.012695 201.499313,304.010254 200.376953,304.009552 C199.613617,304.385162 199.152573,304.529663 198.308594,304.226624 z"/><path fill="#3D87BF" opacity="1.000000" stroke="none" d=" M221.284363,227.328247 C220.983704,215.624390 220.946625,204.245789 220.755859,192.420288 C220.944733,191.553986 221.375122,191.265137 222.282318,191.032104 C223.726105,190.889511 224.768616,191.111313 226.225174,191.063416 C228.307373,191.014862 229.960526,191.183334 231.984589,191.804108 C232.642883,192.097534 232.891357,192.249802 233.436523,192.726105 C235.091003,196.122299 234.242630,199.371887 234.499237,202.954620 C234.509354,203.652405 234.516220,203.928406 234.548477,204.611755 C234.709854,206.172028 235.087341,207.307037 234.978012,208.476318 C234.646515,212.021835 235.686829,214.257690 239.777939,214.237991 C241.610718,214.229156 243.365601,214.955612 244.680573,216.998138 C245.194092,219.224945 244.689041,221.001785 244.540924,222.803421 C243.901108,230.586136 241.230240,232.022247 233.190002,228.375549 C229.064606,227.814697 225.266296,228.744949 221.284363,227.328247 z"/><path fill="#16273D" opacity="1.000000" stroke="none" d=" M256.660553,241.023819 C256.996979,241.038956 256.970520,241.533646 256.980835,241.781403 C256.863342,244.453598 254.993576,247.803680 260.457581,246.300110 C263.498322,245.463364 265.369202,248.139038 266.003418,251.558258 C264.942017,251.934525 263.861237,251.947113 262.375671,251.946793 C260.597900,250.751862 259.107819,250.779938 257.288361,251.722595 C256.264374,251.948608 255.502182,251.958130 254.358902,251.959534 C250.912369,250.281891 247.739502,250.876022 244.294891,251.724747 C241.639709,251.950546 239.254654,251.956329 236.422852,251.949432 C235.490417,251.467834 235.006638,250.996994 234.304276,250.267334 C234.057083,249.262283 234.043884,248.500488 234.045624,247.357056 C236.920380,245.947693 236.659241,241.306137 240.739899,241.156494 C242.042770,239.214386 243.478119,238.706406 245.664124,239.783432 C248.396835,240.342667 250.797546,240.639542 253.607086,240.973557 C254.171158,241.142822 254.326401,241.274933 254.730057,241.228760 C255.427017,241.036514 255.875580,241.022598 256.660553,241.023819 z"/><path fill="#2A73B0" opacity="1.000000" stroke="none" d=" M245.989044,239.572845 C244.561386,240.280319 243.126648,240.514847 241.335876,240.824081 C233.060486,240.692810 233.063980,240.692795 233.031677,232.482101 C233.027115,231.323654 232.969101,230.165390 232.875336,228.553162 C236.093262,227.344376 240.419632,229.862701 242.462143,227.350739 C244.205231,225.206985 243.524155,221.092133 243.912231,217.428970 C244.301804,216.684036 244.752625,216.535324 245.571228,216.764862 C245.914627,224.344696 245.948288,231.722305 245.989044,239.572845 z"/><path fill="#1B2B41" opacity="1.000000" stroke="none" d=" M232.245239,192.574066 C230.340393,192.823013 228.759903,192.730408 226.786499,192.682236 C225.513168,192.586349 224.630661,192.467194 223.411530,192.388245 C222.536942,192.250366 221.987320,192.191544 221.019928,192.053055 C220.602142,191.973389 220.270706,192.026093 220.104523,192.002319 C221.158844,187.977524 219.888077,183.946503 220.044281,179.472107 C220.005310,179.011108 220.245361,178.829941 220.237808,178.679749 C223.498550,174.431808 227.276596,176.137512 231.445984,177.803207 C232.096146,178.234756 232.331924,178.443924 232.828613,179.048950 C234.349808,183.765656 234.854111,188.055771 232.245239,192.574066 z"/><path fill="#1B2B41" opacity="1.000000" stroke="none" d=" M244.475830,251.956482 C247.028458,248.527908 250.359833,249.531372 253.860077,251.587891 C250.960846,251.957001 247.943863,251.962616 244.475830,251.956482 z"/><path fill="#1B2B41" opacity="1.000000" stroke="none" d=" M257.438354,251.950760 C258.262421,249.224152 259.898041,249.342789 261.879669,251.600586 C260.597321,251.943390 259.223755,251.952911 257.438354,251.950760 z"/><path fill="#1B2B41" opacity="1.000000" stroke="none" d=" M234.116135,250.324203 C234.907379,250.141678 235.590012,250.468506 235.920166,251.642639 C235.120544,251.846039 234.427444,251.530746 234.116135,250.324203 z"/><path fill="#1B2B41" opacity="1.000000" stroke="none" d=" M272.712646,178.833313 C272.884247,180.278748 272.376892,181.353058 270.728271,181.920410 C270.139679,179.493225 268.572113,178.823044 266.271667,178.945801 C263.803406,179.077545 261.324982,179.019867 258.389099,179.100937 C257.685577,179.346344 257.444000,179.535645 256.795776,179.940491 C250.315155,181.040192 244.176865,179.983597 237.635345,180.828369 C235.547882,180.975983 234.019104,180.722168 232.370026,179.325317 C232.014801,179.012955 231.953598,178.946838 231.923126,178.913666 C229.257080,175.570068 229.251663,172.176041 231.955170,168.388916 C233.523361,167.142227 234.953476,167.198044 236.677551,166.968750 C247.026505,166.067261 257.048523,166.666595 267.518311,166.718658 C268.527710,167.082840 269.081635,167.278793 269.684143,167.766388 C269.272308,171.179688 269.518555,174.312057 269.892914,177.691360 C270.939117,178.204239 271.683044,178.467529 272.712646,178.833313 z"/><path fill="#E3DED4" opacity="1.000000" stroke="none" d=" M231.855713,168.056610 C232.304810,171.391693 232.268539,174.713730 232.062454,178.458115 C228.289764,178.753571 224.686874,178.626648 220.657135,178.514648 C219.671982,165.438980 219.157379,168.291931 231.855713,168.056610 z"/><path fill="#FDF7EA" opacity="1.000000" stroke="none" d=" M267.641052,166.645050 C257.964233,166.930374 247.954697,166.973862 237.482422,166.945984 C241.280807,165.009857 245.758163,166.139175 250.119308,166.077026 C255.842590,165.995514 261.595612,165.529343 267.641052,166.645050 z"/><path fill="#131F30" opacity="1.000000" stroke="none" d=" M270.224915,177.491852 C267.947357,175.055710 269.102966,171.844147 269.522034,168.390717 C269.906708,171.052933 270.080688,174.047836 270.224915,177.491852 z"/><path fill="#307AB8" opacity="1.000000" stroke="none" d=" M246.219849,216.721222 C245.443985,216.974930 245.007019,216.982758 244.239548,216.999664 C243.151169,216.712921 242.414825,216.329071 241.631485,216.137329 C238.988327,215.490341 235.504959,217.339203 233.730576,214.969940 C231.872116,212.488434 233.248856,208.957733 233.019775,205.435760 C235.623291,202.133698 239.599701,204.714050 242.607025,202.278717 C244.058929,198.610260 242.924515,194.640472 245.874832,191.353333 C249.617737,189.617828 252.974304,189.302994 256.617035,191.687744 C256.984772,198.163300 256.737305,204.333710 257.091095,210.469482 C257.344849,214.870529 255.910477,216.628906 251.477417,216.081512 C249.878433,215.884079 248.200592,216.325455 246.219849,216.721222 z"/><path fill="#2A73B0" opacity="1.000000" stroke="none" d=" M256.985779,191.558136 C253.510696,192.038757 250.046463,192.069824 246.102722,192.147614 C241.854523,194.628311 237.757217,193.232071 233.353027,193.110397 C232.759476,193.002640 232.590775,192.995132 232.171478,192.951630 C232.035934,188.581421 232.150955,184.247208 232.140396,179.462982 C233.448761,179.044922 234.882706,179.076874 236.742889,179.171112 C243.454025,179.821014 249.751526,179.383881 256.453003,179.337631 C257.039734,179.181641 257.216125,179.153046 257.659851,179.140747 C257.682678,183.145996 256.554413,187.066162 256.985779,191.558136 z"/><path fill="#1B2B41" opacity="1.000000" stroke="none" d=" M254.738922,241.013840 C254.978470,241.050446 254.632050,241.357941 254.632050,241.357941 C254.632050,241.357941 254.201096,241.273026 254.108521,241.141861 C254.015930,241.010696 254.499390,240.977234 254.738922,241.013840 z"/><path fill="#F9EEDD" opacity="1.000000" stroke="none" d=" M198.052063,304.282043 C198.443161,304.006958 198.888763,304.005432 199.668564,304.007568 C199.682846,304.480774 199.362915,304.950287 199.042999,305.419800 C198.730850,305.131714 198.418716,304.843658 198.052063,304.282043 z"/><path fill="#FDF7EA" opacity="1.000000" stroke="none" d=" M232.912537,193.464325 C236.777969,191.471954 240.806992,192.331619 245.189819,192.160187 C245.398590,195.804565 245.173950,199.414795 244.961517,203.463104 C241.304428,205.171722 237.531601,204.236160 233.423645,204.156433 C232.989441,200.564606 232.943161,197.241562 232.912537,193.464325 z"/><path fill="#135B96" opacity="1.000000" stroke="none" d=" M233.034912,204.159149 C236.711380,203.926407 240.387024,203.965134 244.518188,203.952545 C241.480164,206.132126 237.601791,204.484726 233.483368,204.984955 C233.030746,204.792557 233.032425,204.611588 233.034912,204.159149 z"/><path fill="#2A73B0" opacity="1.000000" stroke="none" d=" M223.374405,192.488525 C223.991882,192.321136 224.897202,192.333054 226.098068,192.535828 C225.483154,192.707047 224.572708,192.687439 223.374405,192.488525 z"/><path fill="#3D87BF" opacity="1.000000" stroke="none" d=" M256.408875,179.155060 C250.551193,180.704865 244.186417,179.975876 237.500259,179.447113 C243.430878,179.188873 249.692657,179.144379 256.408875,179.155060 z"/><path fill="#F9EEDD" opacity="1.000000" stroke="none" d=" M234.313629,195.387894 C236.693100,193.224152 239.259445,194.177399 241.681915,194.120010 C243.027908,194.088135 243.867706,194.944870 243.885574,196.314209 C243.908768,198.088165 244.777847,200.518372 242.956375,201.379257 C240.820221,202.388885 238.143265,203.618744 235.798019,202.514267 C232.911697,201.154953 234.227036,198.170395 234.313629,195.387894 z"/></svg>