<svg xmlns="http://www.w3.org/2000/svg" xmlns:xlink="http://www.w3.org/1999/xlink" width="1500" zoomAndPan="magnify" viewBox="0 0 1125 1124.99995" height="1500" preserveAspectRatio="xMidYMid meet" version="1.2"><defs/><g id="2119a6ec47"><g style="fill:#ffffff;fill-opacity:1;"><g transform="translate(69.647289, 629.624926)"><path style="stroke:none" d="M 12.5 -137.5 L 37.34375 -137.5 C 47.707031 -137.5 54.75 -135.140625 58.46875 -130.421875 C 62.195312 -125.710938 64.113281 -117.757812 64.21875 -106.5625 L 64.21875 -103.59375 C 64.21875 -95.519531 63.460938 -89.164062 61.953125 -84.53125 C 60.441406 -79.894531 57.734375 -76.535156 53.828125 -74.453125 C 62.265625 -71.015625 66.484375 -60 66.484375 -41.40625 L 66.484375 -38.515625 C 66.328125 -24.765625 64.242188 -14.90625 60.234375 -8.9375 C 56.222656 -2.976562 49.269531 0 39.375 0 L 12.5 0 Z M 50.234375 -43.75 C 50.234375 -52.601562 49.503906 -58.800781 48.046875 -62.34375 C 46.585938 -65.882812 43.722656 -67.65625 39.453125 -67.65625 L 28.671875 -67.65625 L 28.671875 -13.046875 L 38.59375 -13.046875 C 43.175781 -13.046875 46.257812 -14.84375 47.84375 -18.4375 C 49.4375 -22.03125 50.234375 -28.878906 50.234375 -38.984375 Z M 48.203125 -106.328125 C 48.203125 -106.484375 48.203125 -106.640625 48.203125 -106.796875 C 48.203125 -115.960938 46.613281 -121.378906 43.4375 -123.046875 C 41.875 -123.878906 39.609375 -124.296875 36.640625 -124.296875 L 28.671875 -124.296875 L 28.671875 -80.078125 L 37.8125 -80.078125 C 40.9375 -80.078125 43.160156 -80.582031 44.484375 -81.59375 C 45.816406 -82.613281 46.769531 -84.632812 47.34375 -87.65625 C 47.914062 -90.675781 48.203125 -95.625 48.203125 -102.5 Z M 48.203125 -106.328125 "/></g></g><g style="fill:#ffffff;fill-opacity:1;"><g transform="translate(144.020467, 629.624926)"><path style="stroke:none" d="M 26.015625 -137.5 L 45.46875 -137.5 L 68.203125 0 L 52.96875 0 L 49.0625 -26.25 L 24.140625 -26.25 L 20.546875 0 L 5.15625 0 Z M 25.9375 -39.375 L 47.03125 -39.375 L 36.171875 -112.03125 L 35.9375 -112.03125 Z M 25.9375 -39.375 "/></g></g><g style="fill:#ffffff;fill-opacity:1;"><g transform="translate(217.378051, 629.624926)"><path style="stroke:none" d="M 9.6875 -94.921875 C 8.75 -98.203125 8.28125 -102.132812 8.28125 -106.71875 C 8.28125 -116.664062 10.113281 -124.566406 13.78125 -130.421875 C 17.457031 -136.285156 24.476562 -139.21875 34.84375 -139.21875 C 48.175781 -139.21875 56.039062 -132.8125 58.4375 -120 C 59.476562 -114.476562 60 -107.523438 60 -99.140625 L 60 -91.015625 L 44.53125 -91.015625 L 44.53125 -100.234375 C 44.53125 -108.984375 44.085938 -114.867188 43.203125 -117.890625 C 42.316406 -120.910156 41.222656 -122.914062 39.921875 -123.90625 C 38.617188 -124.894531 36.925781 -125.390625 34.84375 -125.390625 C 30.9375 -125.390625 28.125 -123.957031 26.40625 -121.09375 C 24.6875 -118.226562 23.828125 -113.984375 23.828125 -108.359375 C 23.828125 -102.734375 24.609375 -98.617188 26.171875 -96.015625 C 27.734375 -93.410156 29.660156 -90.921875 31.953125 -88.546875 C 34.242188 -86.179688 35.519531 -84.84375 35.78125 -84.53125 L 45.15625 -74.609375 C 56.40625 -62.835938 62.03125 -49.660156 62.03125 -35.078125 C 62.03125 -23.203125 60.191406 -14.125 56.515625 -7.84375 C 52.847656 -1.570312 45.859375 1.5625 35.546875 1.5625 C 23.097656 1.5625 15.207031 -3.90625 11.875 -14.84375 C 9.945312 -20.988281 8.984375 -29.035156 8.984375 -38.984375 C 8.984375 -39.242188 8.984375 -39.503906 8.984375 -39.765625 L 8.984375 -53.125 L 24.6875 -53.125 L 24.6875 -39.140625 C 24.6875 -29.085938 25.414062 -22.09375 26.875 -18.15625 C 28.332031 -14.226562 31.039062 -12.265625 35 -12.265625 C 38.957031 -12.265625 41.691406 -13.1875 43.203125 -15.03125 C 44.710938 -16.882812 45.582031 -19.710938 45.8125 -23.515625 C 46.050781 -27.316406 46.171875 -31.585938 46.171875 -36.328125 C 46.171875 -45.859375 41.976562 -54.816406 33.59375 -63.203125 L 24.609375 -72.1875 C 16.585938 -80.414062 11.613281 -87.992188 9.6875 -94.921875 Z M 9.6875 -94.921875 "/></g></g><g style="fill:#ffffff;fill-opacity:1;"><g transform="translate(285.501382, 629.624926)"><path style="stroke:none" d="M 12.5 -137.5 L 28.671875 -137.5 L 28.671875 0 L 12.5 0 Z M 12.5 -137.5 "/></g></g><g style="fill:#ffffff;fill-opacity:1;"><g transform="translate(326.672254, 629.624926)"><path style="stroke:none" d="M 11.25 -137.5 L 27.421875 -137.5 L 27.421875 -13.359375 L 52.8125 -13.359375 L 52.8125 0 L 11.25 0 Z M 11.25 -137.5 "/></g></g><g style="fill:#ffffff;fill-opacity:1;"><g transform="translate(382.295891, 629.624926)"><path style="stroke:none" d=""/></g></g><g style="fill:#ffffff;fill-opacity:1;"><g transform="translate(421.59181, 629.624926)"><path style="stroke:none" d="M 26.015625 -137.5 L 45.46875 -137.5 L 68.203125 0 L 52.96875 0 L 49.0625 -26.25 L 24.140625 -26.25 L 20.546875 0 L 5.15625 0 Z M 25.9375 -39.375 L 47.03125 -39.375 L 36.171875 -112.03125 L 35.9375 -112.03125 Z M 25.9375 -39.375 "/></g></g><g style="fill:#ffffff;fill-opacity:1;"><g transform="translate(494.949393, 629.624926)"><path style="stroke:none" d="M 12.5 -137.5 L 37.34375 -137.5 C 47.707031 -137.5 54.75 -135.140625 58.46875 -130.421875 C 62.195312 -125.710938 64.113281 -117.757812 64.21875 -106.5625 L 64.21875 -103.59375 C 64.21875 -95.519531 63.460938 -89.164062 61.953125 -84.53125 C 60.441406 -79.894531 57.734375 -76.535156 53.828125 -74.453125 C 62.265625 -71.015625 66.484375 -60 66.484375 -41.40625 L 66.484375 -38.515625 C 66.328125 -24.765625 64.242188 -14.90625 60.234375 -8.9375 C 56.222656 -2.976562 49.269531 0 39.375 0 L 12.5 0 Z M 50.234375 -43.75 C 50.234375 -52.601562 49.503906 -58.800781 48.046875 -62.34375 C 46.585938 -65.882812 43.722656 -67.65625 39.453125 -67.65625 L 28.671875 -67.65625 L 28.671875 -13.046875 L 38.59375 -13.046875 C 43.175781 -13.046875 46.257812 -14.84375 47.84375 -18.4375 C 49.4375 -22.03125 50.234375 -28.878906 50.234375 -38.984375 Z M 48.203125 -106.328125 C 48.203125 -106.484375 48.203125 -106.640625 48.203125 -106.796875 C 48.203125 -115.960938 46.613281 -121.378906 43.4375 -123.046875 C 41.875 -123.878906 39.609375 -124.296875 36.640625 -124.296875 L 28.671875 -124.296875 L 28.671875 -80.078125 L 37.8125 -80.078125 C 40.9375 -80.078125 43.160156 -80.582031 44.484375 -81.59375 C 45.816406 -82.613281 46.769531 -84.632812 47.34375 -87.65625 C 47.914062 -90.675781 48.203125 -95.625 48.203125 -102.5 Z M 48.203125 -106.328125 "/></g></g><g style="fill:#ffffff;fill-opacity:1;"><g transform="translate(569.322571, 629.624926)"><path style="stroke:none" d="M 48.671875 -137.5 L 64.765625 -137.5 L 64.765625 -35.3125 C 64.765625 -22.445312 62.742188 -13.070312 58.703125 -7.1875 C 54.671875 -1.300781 47.679688 1.640625 37.734375 1.640625 C 27.785156 1.640625 20.753906 -1.300781 16.640625 -7.1875 C 12.523438 -13.070312 10.46875 -22.445312 10.46875 -35.3125 L 10.46875 -137.5 L 26.640625 -137.5 L 26.640625 -35.703125 C 26.640625 -26.535156 27.015625 -21.050781 27.765625 -19.25 C 28.523438 -17.457031 29.320312 -16.039062 30.15625 -15 C 31.613281 -13.019531 34.140625 -12.03125 37.734375 -12.03125 C 41.328125 -12.03125 43.984375 -13.125 45.703125 -15.3125 C 47.421875 -17.5 48.34375 -20.753906 48.46875 -25.078125 C 48.601562 -29.398438 48.671875 -32.914062 48.671875 -35.625 Z M 48.671875 -137.5 "/></g></g><g style="fill:#ffffff;fill-opacity:1;"><g transform="translate(644.555109, 629.624926)"><path style="stroke:none" d="M 9.6875 -94.921875 C 8.75 -98.203125 8.28125 -102.132812 8.28125 -106.71875 C 8.28125 -116.664062 10.113281 -124.566406 13.78125 -130.421875 C 17.457031 -136.285156 24.476562 -139.21875 34.84375 -139.21875 C 48.175781 -139.21875 56.039062 -132.8125 58.4375 -120 C 59.476562 -114.476562 60 -107.523438 60 -99.140625 L 60 -91.015625 L 44.53125 -91.015625 L 44.53125 -100.234375 C 44.53125 -108.984375 44.085938 -114.867188 43.203125 -117.890625 C 42.316406 -120.910156 41.222656 -122.914062 39.921875 -123.90625 C 38.617188 -124.894531 36.925781 -125.390625 34.84375 -125.390625 C 30.9375 -125.390625 28.125 -123.957031 26.40625 -121.09375 C 24.6875 -118.226562 23.828125 -113.984375 23.828125 -108.359375 C 23.828125 -102.734375 24.609375 -98.617188 26.171875 -96.015625 C 27.734375 -93.410156 29.660156 -90.921875 31.953125 -88.546875 C 34.242188 -86.179688 35.519531 -84.84375 35.78125 -84.53125 L 45.15625 -74.609375 C 56.40625 -62.835938 62.03125 -49.660156 62.03125 -35.078125 C 62.03125 -23.203125 60.191406 -14.125 56.515625 -7.84375 C 52.847656 -1.570312 45.859375 1.5625 35.546875 1.5625 C 23.097656 1.5625 15.207031 -3.90625 11.875 -14.84375 C 9.945312 -20.988281 8.984375 -29.035156 8.984375 -38.984375 C 8.984375 -39.242188 8.984375 -39.503906 8.984375 -39.765625 L 8.984375 -53.125 L 24.6875 -53.125 L 24.6875 -39.140625 C 24.6875 -29.085938 25.414062 -22.09375 26.875 -18.15625 C 28.332031 -14.226562 31.039062 -12.265625 35 -12.265625 C 38.957031 -12.265625 41.691406 -13.1875 43.203125 -15.03125 C 44.710938 -16.882812 45.582031 -19.710938 45.8125 -23.515625 C 46.050781 -27.316406 46.171875 -31.585938 46.171875 -36.328125 C 46.171875 -45.859375 41.976562 -54.816406 33.59375 -63.203125 L 24.609375 -72.1875 C 16.585938 -80.414062 11.613281 -87.992188 9.6875 -94.921875 Z M 9.6875 -94.921875 "/></g></g><g style="fill:#ffffff;fill-opacity:1;"><g transform="translate(712.67844, 629.624926)"><path style="stroke:none" d="M 49.453125 -137.5 L 65.625 -137.5 L 65.625 0 L 49.453125 0 L 49.453125 -66.640625 L 27.421875 -66.640625 L 27.421875 0 L 11.25 0 L 11.25 -137.5 L 27.421875 -137.5 L 27.421875 -79.84375 L 49.453125 -79.84375 Z M 49.453125 -137.5 "/></g></g><g style="fill:#ffffff;fill-opacity:1;"><g transform="translate(789.551557, 629.624926)"><path style="stroke:none" d="M 12.5 -137.5 L 28.671875 -137.5 L 28.671875 0 L 12.5 0 Z M 12.5 -137.5 "/></g></g><g style="fill:#ffffff;fill-opacity:1;"><g transform="translate(830.722452, 629.624926)"><path style="stroke:none" d="M 49.453125 -137.5 L 65.625 -137.5 L 65.625 0 L 49.453125 0 L 49.453125 -66.640625 L 27.421875 -66.640625 L 27.421875 0 L 11.25 0 L 11.25 -137.5 L 27.421875 -137.5 L 27.421875 -79.84375 L 49.453125 -79.84375 Z M 49.453125 -137.5 "/></g></g><g style="fill:#ffffff;fill-opacity:1;"><g transform="translate(907.595523, 629.624926)"><path style="stroke:none" d="M 26.015625 -137.5 L 45.46875 -137.5 L 68.203125 0 L 52.96875 0 L 49.0625 -26.25 L 24.140625 -26.25 L 20.546875 0 L 5.15625 0 Z M 25.9375 -39.375 L 47.03125 -39.375 L 36.171875 -112.03125 L 35.9375 -112.03125 Z M 25.9375 -39.375 "/></g></g><g style="fill:#ffffff;fill-opacity:1;"><g transform="translate(980.953152, 629.624926)"><path style="stroke:none" d="M 12.5 -137.5 L 37.34375 -137.5 C 47.707031 -137.5 54.75 -135.140625 58.46875 -130.421875 C 62.195312 -125.710938 64.113281 -117.757812 64.21875 -106.5625 L 64.21875 -103.59375 C 64.21875 -95.519531 63.460938 -89.164062 61.953125 -84.53125 C 60.441406 -79.894531 57.734375 -76.535156 53.828125 -74.453125 C 62.265625 -71.015625 66.484375 -60 66.484375 -41.40625 L 66.484375 -38.515625 C 66.328125 -24.765625 64.242188 -14.90625 60.234375 -8.9375 C 56.222656 -2.976562 49.269531 0 39.375 0 L 12.5 0 Z M 50.234375 -43.75 C 50.234375 -52.601562 49.503906 -58.800781 48.046875 -62.34375 C 46.585938 -65.882812 43.722656 -67.65625 39.453125 -67.65625 L 28.671875 -67.65625 L 28.671875 -13.046875 L 38.59375 -13.046875 C 43.175781 -13.046875 46.257812 -14.84375 47.84375 -18.4375 C 49.4375 -22.03125 50.234375 -28.878906 50.234375 -38.984375 Z M 48.203125 -106.328125 C 48.203125 -106.484375 48.203125 -106.640625 48.203125 -106.796875 C 48.203125 -115.960938 46.613281 -121.378906 43.4375 -123.046875 C 41.875 -123.878906 39.609375 -124.296875 36.640625 -124.296875 L 28.671875 -124.296875 L 28.671875 -80.078125 L 37.8125 -80.078125 C 40.9375 -80.078125 43.160156 -80.582031 44.484375 -81.59375 C 45.816406 -82.613281 46.769531 -84.632812 47.34375 -87.65625 C 47.914062 -90.675781 48.203125 -95.625 48.203125 -102.5 Z M 48.203125 -106.328125 "/></g></g></g></svg>