<svg xmlns="http://www.w3.org/2000/svg" viewBox="0 0 225 225"><g fill="none" stroke="#80c6ed" stroke-width="2"><path d="M133.75 89.64c-.37 14.76-20.34 11.27-28.4 7.01q-.53-.29-.71.29l-1.78 5.98q-.16.53.35.77c9.82 4.71 26.63 5.92 34.39-2.84 5.95-6.74 6.18-17.48.21-23.95-6.02-6.53-15.58-6.85-21.91-12.63-4.5-4.1-4.56-10.93.25-14.63 5.61-4.3 14.64-2.86 20.71.14a.49.49 0 0 0 .68-.28l1.93-5.76a.66.65 20.9 0 0-.37-.81c-9.83-4.25-25.3-4.43-32.13 5.55q-4.64 6.78-2.09 14.2c5.16 15.05 29.23 12.01 28.87 26.96M159.77 80.37c8.24 1.28 17.86.06 24.28-5.34 11.36-9.56 8.11-30.11-7.57-33.29q-11.58-2.35-25.09.23-.64.12-.64.77l-.01 63.13q0 .63.63.63h7.13q.5 0 .5-.5V81.03a.67.67 0 0 1 .77-.66M75.52 41.22a.31.31 0 0 0-.29-.21l-9.6-.01a.31.31 0 0 0-.29.21l-22.01 64.88a.31.31 0 0 0 .29.41h7.96a.31.31 0 0 0 .29-.21l6.68-20.08a.31.31 0 0 1 .29-.21h22.85a.31.31 0 0 1 .29.21l6.87 20.08a.31.31 0 0 0 .29.21h8.16a.31.31 0 0 0 .29-.41L75.52 41.22M50.4 179.97a.35.35 0 0 0 .35-.35v-49.31a.35.35 0 0 1 .63-.2l35.46 49.54a.35.35 0 0 0 .28.14l7.27.11a.35.35 0 0 0 .36-.35v-63.2a.35.35 0 0 0-.35-.35h-7.05a.35.35 0 0 0-.35.35v49.24a.35.35 0 0 1-.63.2l-35.45-49.64a.35.35 0 0 0-.28-.15h-7.29a.35.35 0 0 0-.35.35v63.17a.35.35 0 0 0 .35.35l7.05.1M111.8 173.56a.33.33 0 0 1-.33-.33l.05-21.9a.33.33 0 0 1 .33-.33h22.82a.33.33 0 0 0 .33-.33v-6.09a.33.33 0 0 0-.33-.33h-22.84a.33.33 0 0 1-.33-.33v-21.09a.33.33 0 0 1 .33-.33h25.84a.33.33 0 0 0 .33-.33v-5.84a.33.33 0 0 0-.33-.33h-33.59a.33.33 0 0 0-.33.33v63.13a.33.33 0 0 0 .33.33l33.59-.06a.33.33 0 0 0 .33-.33v-5.69a.33.33 0 0 0-.33-.33l-25.87.18M145.5 122.09a.41.41 0 0 0 .41.41h17.68a.41.41 0 0 1 .41.41v56.48a.41.41 0 0 0 .4.41l6.93.09a.41.41 0 0 0 .42-.41v-56.62a.41.41 0 0 1 .41-.41l17.68.02a.41.41 0 0 0 .41-.41v-5.65a.41.41 0 0 0-.41-.41h-43.93a.41.41 0 0 0-.41.41v5.68M36.64 176.74a5.41 5.41 0 0 0-5.41-5.41 5.41 5.41 0 0 0-5.41 5.41 5.41 5.41 0 0 0 5.41 5.41 5.41 5.41 0 0 0 5.41-5.41" vector-effect="non-scaling-stroke"/><path d="m158.96 48.95.04 23.3a1.66 1.66 0 0 0 1.66 1.66l8.06-.02a13.78 12.95-.1 0 0 13.76-12.97v-.72a13.78 12.95-.1 0 0-13.8-12.93l-8.06.02a1.66 1.66 0 0 0-1.66 1.66M70.25 49.09 60.6 79q-.16.5.37.5h18.51q.66 0 .45-.62c-3.22-9.58-7.42-19.83-9.22-29.75a.24.24 0 0 0-.46-.04" vector-effect="non-scaling-stroke"/></g><path fill="#fff" d="M0 0h225v225H0V0Zm133.75 89.64c-.37 14.76-20.34 11.27-28.4 7.01q-.53-.29-.71.29l-1.78 5.98q-.16.53.35.77c9.82 4.71 26.63 5.92 34.39-2.84 5.95-6.74 6.18-17.48.21-23.95-6.02-6.53-15.58-6.85-21.91-12.63-4.5-4.1-4.56-10.93.25-14.63 5.61-4.3 14.64-2.86 20.71.14a.49.49 0 0 0 .68-.28l1.93-5.76a.66.65 20.9 0 0-.37-.81c-9.83-4.25-25.3-4.43-32.13 5.55q-4.64 6.78-2.09 14.2c5.16 15.05 29.23 12.01 28.87 26.96Zm26.02-9.27c8.24 1.28 17.86.06 24.28-5.34 11.36-9.56 8.11-30.11-7.57-33.29q-11.58-2.35-25.09.23-.64.12-.64.77l-.01 63.13q0 .63.63.63h7.13q.5 0 .5-.5V81.03a.67.67 0 0 1 .77-.66ZM75.52 41.22a.31.31 0 0 0-.29-.21l-9.6-.01a.31.31 0 0 0-.29.21l-22.01 64.88a.31.31 0 0 0 .29.41h7.96a.31.31 0 0 0 .29-.21l6.68-20.08a.31.31 0 0 1 .29-.21h22.85a.31.31 0 0 1 .29.21l6.87 20.08a.31.31 0 0 0 .29.21h8.16a.31.31 0 0 0 .29-.41L75.52 41.22ZM50.4 179.97a.35.35 0 0 0 .35-.35v-49.31a.35.35 0 0 1 .63-.2l35.46 49.54a.35.35 0 0 0 .28.14l7.27.11a.35.35 0 0 0 .36-.35v-63.2a.35.35 0 0 0-.35-.35h-7.05a.35.35 0 0 0-.35.35v49.24a.35.35 0 0 1-.63.2l-35.45-49.64a.35.35 0 0 0-.28-.15h-7.29a.35.35 0 0 0-.35.35v63.17a.35.35 0 0 0 .35.35l7.05.1Zm61.4-6.41a.33.33 0 0 1-.33-.33l.05-21.9a.33.33 0 0 1 .33-.33h22.82a.33.33 0 0 0 .33-.33v-6.09a.33.33 0 0 0-.33-.33h-22.84a.33.33 0 0 1-.33-.33v-21.09a.33.33 0 0 1 .33-.33h25.84a.33.33 0 0 0 .33-.33v-5.84a.33.33 0 0 0-.33-.33h-33.59a.33.33 0 0 0-.33.33v63.13a.33.33 0 0 0 .33.33l33.59-.06a.33.33 0 0 0 .33-.33v-5.69a.33.33 0 0 0-.33-.33l-25.87.18Zm33.7-51.47a.41.41 0 0 0 .41.41h17.68a.41.41 0 0 1 .41.41v56.48a.41.41 0 0 0 .4.41l6.93.09a.41.41 0 0 0 .42-.41v-56.62a.41.41 0 0 1 .41-.41l17.68.02a.41.41 0 0 0 .41-.41v-5.65a.41.41 0 0 0-.41-.41h-43.93a.41.41 0 0 0-.41.41v5.68ZM36.64 176.74a5.41 5.41 0 0 0-5.41-5.41 5.41 5.41 0 0 0-5.41 5.41 5.41 5.41 0 0 0 5.41 5.41 5.41 5.41 0 0 0 5.41-5.41Z"/><path fill="#008cdb" d="M105.35 96.65c8.06 4.26 28.03 7.75 28.4-7.01.36-14.95-23.71-11.91-28.87-26.96q-2.55-7.42 2.09-14.2c6.83-9.98 22.3-9.8 32.13-5.55a.66.65 20.9 0 1 .37.81l-1.93 5.76a.49.49 0 0 1-.68.28c-6.07-3-15.1-4.44-20.71-.14-4.81 3.7-4.75 10.53-.25 14.63 6.33 5.78 15.89 6.1 21.91 12.63 5.97 6.47 5.74 17.21-.21 23.95-7.76 8.76-24.57 7.55-34.39 2.84q-.51-.24-.35-.77l1.78-5.98q.18-.58.71-.29ZM159.77 80.37a.67.67 0 0 0-.77.66V106q0 .5-.5.5h-7.13q-.63 0-.63-.63l.01-63.13q0-.65.64-.77 13.51-2.58 25.09-.23c15.68 3.18 18.93 23.73 7.57 33.29-6.42 5.4-16.04 6.62-24.28 5.34Zm-.81-31.42.04 23.3a1.66 1.66 0 0 0 1.66 1.66l8.06-.02a13.78 12.95-.1 0 0 13.76-12.97v-.72a13.78 12.95-.1 0 0-13.8-12.93l-8.06.02a1.66 1.66 0 0 0-1.66 1.66ZM75.52 41.22l22.07 64.87a.31.31 0 0 1-.29.41h-8.16a.31.31 0 0 1-.29-.21l-6.87-20.08a.31.31 0 0 0-.29-.21H58.84a.31.31 0 0 0-.29.21l-6.68 20.08a.31.31 0 0 1-.29.21h-7.96a.31.31 0 0 1-.29-.41l22.01-64.88a.31.31 0 0 1 .29-.21l9.6.01a.31.31 0 0 1 .29.21Zm-5.27 7.87L60.6 79q-.16.5.37.5h18.51q.66 0 .45-.62c-3.22-9.58-7.42-19.83-9.22-29.75a.24.24 0 0 0-.46-.04Z"/><path fill="#fff" d="M158.96 48.95a1.66 1.66 0 0 1 1.66-1.66l8.06-.02a13.78 12.95-.1 0 1 13.8 12.93v.72a13.78 12.95-.1 0 1-13.76 12.97l-8.06.02a1.66 1.66 0 0 1-1.66-1.66l-.04-23.3ZM60.6 79l9.65-29.91a.24.24 0 0 1 .46.04c1.8 9.92 6 20.17 9.22 29.75q.21.62-.45.62H60.97q-.53 0-.37-.5Z"/><path fill="#008cdb" d="m50.4 179.97-7.05-.1a.35.35 0 0 1-.35-.35v-63.17a.35.35 0 0 1 .35-.35h7.29a.35.35 0 0 1 .28.15l35.45 49.64a.35.35 0 0 0 .63-.2v-49.24a.35.35 0 0 1 .35-.35h7.05a.35.35 0 0 1 .35.35v63.2a.35.35 0 0 1-.36.35l-7.27-.11a.35.35 0 0 1-.28-.14l-35.46-49.54a.35.35 0 0 0-.63.2v49.31a.35.35 0 0 1-.35.35ZM111.8 173.56l25.87-.18a.33.33 0 0 1 .33.33v5.69a.33.33 0 0 1-.33.33l-33.59.06a.33.33 0 0 1-.33-.33v-63.13a.33.33 0 0 1 .33-.33h33.59a.33.33 0 0 1 .33.33v5.84a.33.33 0 0 1-.33.33h-25.84a.33.33 0 0 0-.33.33v21.09a.33.33 0 0 0 .33.33h22.84a.33.33 0 0 1 .33.33v6.09a.33.33 0 0 1-.33.33h-22.82a.33.33 0 0 0-.33.33l-.05 21.9a.33.33 0 0 0 .33.33ZM145.5 122.09v-5.68a.41.41 0 0 1 .41-.41h43.93a.41.41 0 0 1 .41.41v5.65a.41.41 0 0 1-.41.41l-17.68-.02a.41.41 0 0 0-.41.41v56.62a.41.41 0 0 1-.42.41l-6.93-.09a.41.41 0 0 1-.4-.41v-56.48a.41.41 0 0 0-.41-.41h-17.68a.41.41 0 0 1-.41-.41Z"/><circle cx="31.23" cy="176.74" r="5.41" fill="#008cdb"/></svg>